{"glyphs":{"0":{"ha":681,"x_min":57,"x_max":624,"o":"m 339 -20 q 140 119 222 -20 q 57 427 57 257 q 141 750 57 608 q 343 893 225 893 q 541 750 457 893 q 624 435 624 607 q 540 123 624 267 q 339 -20 456 -20 m 479 336 l 479 570 q 343 860 479 860 q 238 792 275 860 q 201 555 201 724 l 201 292 q 342 14 201 14 q 445 86 410 14 q 479 336 479 158 z "},"1":{"ha":681,"x_min":121,"x_max":562,"o":"m 406 893 l 406 35 l 562 35 l 562 0 l 121 0 l 121 35 l 277 35 l 277 831 l 121 831 l 121 865 l 144 865 q 406 893 293 865 z "},"2":{"ha":681,"x_min":69,"x_max":600,"o":"m 600 252 l 578 0 l 69 0 l 69 81 q 302 312 149 170 q 456 627 456 454 q 413 783 456 724 q 292 843 370 843 q 178 799 222 843 q 134 703 134 754 q 146 676 134 676 q 157 681 149 676 q 200 696 179 696 q 245 675 227 696 q 264 627 264 654 q 243 577 264 598 q 193 557 223 557 q 123 593 151 557 q 96 684 96 629 q 164 830 96 766 q 339 893 232 893 q 520 835 444 893 q 596 682 596 777 q 529 498 596 582 q 331 294 462 415 q 146 113 201 172 l 454 113 q 548 127 541 113 q 561 193 556 141 l 567 252 l 600 252 z "},"3":{"ha":681,"x_min":86,"x_max":614,"o":"m 351 475 l 351 472 q 557 391 500 460 q 614 239 614 322 q 525 57 614 134 q 311 -20 436 -20 q 150 33 214 -20 q 86 147 86 85 q 106 207 86 182 q 155 231 125 231 q 202 210 183 231 q 221 160 221 189 q 184 96 221 114 q 161 79 161 85 q 204 42 161 66 q 298 17 246 17 q 464 218 464 17 q 403 408 464 363 q 271 452 342 452 l 212 448 q 179 469 179 448 q 207 490 179 490 q 250 487 216 490 q 285 484 284 484 q 346 506 306 484 q 406 565 387 528 q 425 682 425 602 q 396 824 425 789 q 311 860 366 860 q 226 840 261 860 q 191 803 191 820 q 217 781 191 795 q 244 730 244 766 q 224 687 244 705 q 180 668 205 668 q 135 691 153 668 q 117 745 117 714 q 176 847 117 800 q 328 893 235 893 q 501 834 431 893 q 571 692 571 776 q 351 475 571 532 z "},"4":{"ha":681,"x_min":35,"x_max":632,"o":"m 485 893 l 485 277 l 599 277 l 599 376 l 632 376 l 632 134 l 599 134 l 599 241 l 485 241 l 485 35 l 587 35 l 587 0 l 239 0 l 239 35 l 354 35 l 354 241 l 35 241 l 35 277 q 421 893 263 703 l 485 893 m 354 277 l 354 746 l 351 746 q 74 277 235 574 l 354 277 z "},"5":{"ha":681,"x_min":71,"x_max":599,"o":"m 171 757 l 160 503 q 300 525 232 525 q 513 450 428 525 q 599 262 599 375 q 506 62 599 143 q 286 -20 413 -20 q 126 34 182 -20 q 71 157 71 87 q 90 209 71 187 q 142 231 109 231 q 187 212 169 231 q 205 164 205 193 q 162 97 205 115 q 144 82 144 90 q 181 41 144 63 q 272 20 217 20 q 449 239 449 20 q 260 488 449 488 q 174 472 205 488 q 136 456 143 456 q 123 482 123 456 l 136 757 q 156 858 140 839 q 256 876 173 876 l 401 876 q 484 882 467 876 q 507 920 500 888 l 536 920 q 502 782 532 807 q 399 757 472 757 l 171 757 z "},"6":{"ha":681,"x_min":66,"x_max":629,"o":"m 567 920 l 567 878 q 222 514 258 840 l 225 511 q 374 583 288 583 q 554 497 478 583 q 629 296 629 410 q 548 76 629 172 q 353 -20 466 -20 q 148 90 229 -20 q 66 366 66 199 q 208 740 66 586 q 567 920 349 895 m 215 452 l 211 332 q 261 48 211 83 q 353 14 311 14 q 451 67 416 14 q 485 288 485 121 q 453 507 485 463 q 364 550 422 550 q 215 452 284 550 z "},"7":{"ha":681,"x_min":74,"x_max":618,"o":"m 143 878 l 618 878 l 524 647 q 477 530 520 634 q 416 358 434 426 q 399 245 399 291 q 417 145 399 205 q 436 56 436 85 q 417 4 436 28 q 364 -20 397 -20 q 302 10 326 -20 q 278 89 278 40 q 310 218 278 140 l 530 751 l 207 751 q 147 740 159 751 q 119 671 134 728 l 109 629 l 74 629 l 143 878 z "},"8":{"ha":681,"x_min":56,"x_max":627,"o":"m 406 454 l 406 452 q 572 365 517 426 q 627 225 627 304 q 549 53 627 125 q 340 -20 471 -20 q 134 50 212 -20 q 56 220 56 120 q 120 374 56 312 q 288 452 185 437 l 288 454 q 132 535 184 474 q 79 669 79 596 q 155 826 79 760 q 340 892 230 892 q 533 825 460 892 q 606 669 606 758 q 555 539 606 602 q 406 454 505 476 m 345 469 q 435 513 403 469 q 467 675 467 556 q 435 820 467 781 q 342 859 404 859 q 251 820 283 859 q 218 642 218 781 q 345 469 218 469 m 339 14 q 448 56 413 14 q 482 212 482 98 q 340 432 482 432 q 237 383 273 432 q 200 203 200 334 q 233 55 200 97 q 339 14 265 14 z "},"9":{"ha":681,"x_min":58,"x_max":624,"o":"m 123 -49 l 123 -21 q 467 364 418 28 l 464 367 q 313 294 399 294 q 137 380 216 294 q 58 581 58 466 q 135 797 58 703 q 332 892 212 892 q 541 787 458 892 q 624 515 624 683 q 481 141 624 300 q 123 -49 338 -18 m 472 419 l 479 646 q 338 861 479 861 q 235 804 267 861 q 203 533 203 747 q 321 329 203 329 q 472 419 404 329 z "}," ":{"ha":340,"x_min":0,"x_max":0,"o":""},"!":{"ha":376,"x_min":103,"x_max":273,"o":"m 205 275 l 172 275 q 163 516 171 439 q 134 691 155 593 q 113 833 113 790 q 136 893 113 867 q 192 920 159 920 q 248 893 226 920 q 269 828 269 867 q 245 668 269 774 q 214 491 221 562 q 205 275 207 421 m 103 69 q 129 130 103 105 q 189 154 154 154 q 248 129 223 154 q 273 69 273 104 q 249 8 273 34 q 189 -17 224 -17 q 129 8 154 -17 q 103 69 103 34 z "},"\"":{"ha":567,"x_min":90,"x_max":476,"o":"m 393 534 l 357 736 q 342 848 342 819 q 407 930 342 930 q 456 911 436 930 q 476 859 476 891 q 472 803 476 831 l 422 534 l 393 534 m 142 534 l 106 736 q 90 848 90 819 q 155 930 90 930 q 205 911 185 930 q 225 859 225 891 q 221 803 225 831 l 171 534 l 142 534 z "},"#":{"ha":928,"x_min":64,"x_max":865,"o":"m 64 653 l 288 653 l 347 930 l 416 930 l 358 653 l 656 653 l 714 930 l 785 930 l 726 653 l 865 653 l 865 581 l 713 581 l 657 318 l 865 318 l 865 248 l 643 248 l 585 -31 l 514 -31 l 572 248 l 273 248 l 216 -31 l 144 -31 l 203 248 l 64 248 l 64 318 l 218 318 l 273 581 l 64 581 l 64 653 m 643 581 l 345 581 l 289 319 l 589 319 l 643 581 z "},"$":{"ha":681,"x_min":62,"x_max":633,"o":"m 278 864 l 278 930 l 309 930 l 309 868 q 353 871 336 871 q 401 868 369 871 l 401 930 l 432 930 l 432 865 q 577 801 530 850 q 625 696 625 752 q 605 640 625 660 q 558 619 584 619 q 514 638 532 619 q 496 689 496 658 q 537 752 496 734 q 557 768 557 762 q 526 802 557 779 q 432 833 494 824 l 432 498 q 633 243 633 414 q 583 96 633 165 q 432 -1 533 27 l 432 -147 l 401 -147 l 401 -9 q 309 -16 350 -18 l 309 -147 l 278 -147 l 278 -12 q 114 68 165 7 q 62 192 62 128 q 83 252 62 224 q 138 279 104 279 q 185 259 163 279 q 207 208 207 239 q 188 158 207 177 q 143 139 168 139 q 133 141 142 139 q 123 143 125 143 q 115 132 115 143 q 157 73 115 113 q 278 22 199 34 l 278 421 q 87 647 87 492 q 278 864 87 812 m 309 833 l 309 547 q 401 513 336 535 l 401 835 l 357 838 q 329 836 347 838 q 309 833 311 833 m 278 562 l 278 827 q 160 693 160 789 q 278 562 160 611 m 401 25 l 401 364 l 309 404 l 309 20 q 332 18 322 18 q 401 25 350 18 m 432 351 l 432 35 q 562 192 562 79 q 432 351 562 298 z "},"%":{"ha":1287,"x_min":143,"x_max":1145,"o":"m 322 453 q 197 520 250 453 q 143 684 143 587 q 198 860 143 791 q 326 928 254 928 q 452 859 399 928 q 505 692 505 790 q 453 523 505 593 q 322 453 401 453 m 326 905 q 273 863 288 905 q 258 699 258 821 q 272 519 258 565 q 325 473 286 473 q 375 512 359 473 q 390 750 390 550 q 326 905 390 905 m 1010 928 l 340 -43 l 279 -43 l 947 928 l 1010 928 m 961 -43 q 836 24 889 -43 q 782 187 782 91 q 837 364 782 296 q 965 432 892 432 q 1091 363 1038 432 q 1145 196 1145 294 q 1092 27 1145 98 q 961 -43 1040 -43 m 965 410 q 912 367 927 410 q 897 203 897 325 q 911 23 897 68 q 964 -22 925 -22 q 1014 16 998 -22 q 1029 254 1029 54 q 965 410 1029 410 z "},"&":{"ha":983,"x_min":50,"x_max":947,"o":"m 528 503 l 686 250 q 708 215 689 241 q 811 532 793 331 l 679 532 l 679 567 l 947 567 l 947 532 l 843 532 q 728 187 829 315 l 838 35 l 939 35 l 939 0 l 667 0 q 612 72 637 43 q 351 -21 495 -21 q 129 54 208 -21 q 50 235 50 129 q 121 414 50 334 q 322 533 191 493 q 244 736 244 666 q 308 864 244 809 q 468 920 372 920 q 629 875 562 920 q 697 758 697 830 q 652 654 697 699 q 490 567 607 610 l 528 503 m 473 595 q 559 658 539 621 q 579 757 579 694 q 471 885 579 885 q 402 863 429 885 q 375 807 375 841 q 473 595 375 747 m 339 504 q 195 353 195 450 q 268 146 195 262 q 436 31 340 31 q 596 100 510 31 q 339 504 445 317 z "},"'":{"ha":250,"x_min":57,"x_max":192,"o":"m 109 534 l 72 736 q 57 848 57 819 q 122 930 57 930 q 172 911 151 930 q 192 859 192 891 q 187 803 192 831 l 138 534 l 109 534 z "},"(":{"ha":449,"x_min":86,"x_max":389,"o":"m 389 -343 l 353 -343 q 149 -28 212 -196 q 86 293 86 140 q 155 632 86 459 q 353 920 223 804 l 389 920 q 203 302 203 682 q 389 -343 203 -100 z "},")":{"ha":449,"x_min":60,"x_max":363,"o":"m 60 920 l 96 920 q 300 605 237 772 q 363 283 363 438 q 294 -55 363 117 q 96 -343 225 -228 l 60 -343 q 245 273 245 -106 q 60 920 245 676 z "},"*":{"ha":681,"x_min":121,"x_max":559,"o":"m 285 867 q 301 912 285 893 q 340 930 317 930 q 380 912 366 930 q 395 871 395 893 q 372 794 395 844 q 349 730 349 745 q 359 715 349 715 q 420 775 378 715 q 505 835 463 835 q 545 818 531 835 q 559 783 559 802 q 537 740 559 759 q 490 720 514 721 q 375 690 375 714 q 439 667 375 673 q 533 642 509 661 q 557 595 557 623 q 542 559 557 574 q 509 545 528 545 q 416 612 463 545 q 361 664 386 664 q 350 650 350 664 q 372 583 350 631 q 395 510 395 536 q 379 468 395 488 q 339 449 364 449 q 300 468 315 449 q 286 507 286 486 q 308 582 286 532 q 329 648 329 631 q 319 661 329 661 q 259 603 299 661 q 175 545 220 545 q 136 560 151 545 q 122 595 122 576 q 228 665 122 658 q 304 690 304 671 q 228 717 304 711 q 121 789 121 722 q 135 824 121 808 q 174 840 149 840 q 259 779 216 840 q 321 718 302 718 q 328 728 328 718 q 306 795 328 747 q 285 867 285 844 z "},"+":{"ha":926,"x_min":96,"x_max":829,"o":"m 96 484 l 427 484 l 427 812 l 498 812 l 498 484 l 829 484 l 829 411 l 498 411 l 498 82 l 427 82 l 427 411 l 96 411 l 96 484 z "},",":{"ha":376,"x_min":81,"x_max":306,"o":"m 165 -221 l 144 -199 q 267 -4 267 -92 q 240 56 267 56 q 222 33 229 56 q 153 -20 204 -20 q 101 2 122 -20 q 81 58 81 24 q 109 122 81 97 q 179 147 138 147 q 269 108 231 147 q 306 9 306 69 q 165 -221 306 -102 z "},"-":{"ha":449,"x_min":79,"x_max":370,"o":"m 79 345 l 370 345 l 370 232 l 79 232 l 79 345 z "},".":{"ha":376,"x_min":103,"x_max":273,"o":"m 103 69 q 128 129 103 104 q 187 154 153 154 q 248 129 223 154 q 273 69 273 104 q 248 8 273 34 q 187 -17 223 -17 q 128 8 153 -17 q 103 69 103 34 z "},"/":{"ha":390,"x_min":0,"x_max":390,"o":"m 390 930 l 74 -21 l 0 -21 l 317 930 l 390 930 z "},":":{"ha":376,"x_min":103,"x_max":273,"o":"m 103 465 q 128 525 103 500 q 187 550 153 550 q 248 525 223 550 q 273 465 273 500 q 248 405 273 430 q 187 379 223 379 q 128 405 153 379 q 103 465 103 430 m 103 69 q 128 129 103 104 q 187 154 153 154 q 248 129 223 154 q 273 69 273 104 q 248 8 273 34 q 187 -17 223 -17 q 128 8 153 -17 q 103 69 103 34 z "},";":{"ha":376,"x_min":81,"x_max":306,"o":"m 103 465 q 128 525 103 500 q 187 550 153 550 q 248 525 223 550 q 273 465 273 500 q 248 405 273 430 q 187 379 223 379 q 128 405 153 379 q 103 465 103 430 m 165 -221 l 144 -199 q 267 -4 267 -92 q 240 56 267 56 q 222 33 229 56 q 153 -20 204 -20 q 101 2 122 -20 q 81 58 81 24 q 109 122 81 97 q 179 147 138 147 q 269 108 231 147 q 306 9 306 69 q 165 -221 306 -102 z "},"<":{"ha":926,"x_min":97,"x_max":829,"o":"m 829 106 l 97 415 l 97 481 l 829 789 l 829 710 l 196 447 l 829 184 l 829 106 z "},"=":{"ha":926,"x_min":97,"x_max":829,"o":"m 97 644 l 829 644 l 829 571 l 97 571 l 97 644 m 97 328 l 829 328 l 829 254 l 97 254 l 97 328 z "},">":{"ha":926,"x_min":97,"x_max":829,"o":"m 97 789 l 829 479 l 829 414 l 97 106 l 97 184 l 732 446 l 97 708 l 97 789 z "},"?":{"ha":608,"x_min":117,"x_max":558,"o":"m 290 261 l 261 261 q 250 354 250 320 q 342 575 250 503 q 460 678 435 647 q 486 754 486 709 q 439 848 486 808 q 322 888 393 888 q 214 854 256 888 q 171 796 171 821 q 197 785 171 786 q 241 763 223 783 q 260 718 260 743 q 240 672 260 691 q 192 653 220 653 q 138 675 159 653 q 117 742 117 697 q 177 867 117 814 q 322 920 237 920 q 494 846 430 920 q 558 679 558 772 q 524 554 558 608 q 379 422 490 499 q 288 296 288 358 q 290 261 288 278 m 205 69 q 230 129 205 104 q 290 154 255 154 q 351 129 326 154 q 376 69 376 104 q 351 8 376 33 q 290 -17 326 -17 q 230 8 255 -17 q 205 69 205 34 z "},"@":{"ha":1279,"x_min":65,"x_max":1244,"o":"m 956 650 l 832 224 q 812 121 812 156 q 825 86 812 103 q 863 69 838 69 q 1058 202 964 69 q 1152 513 1152 335 q 1029 811 1152 692 q 713 929 906 929 q 296 736 460 929 q 131 283 131 543 q 280 -107 131 43 q 661 -258 429 -258 q 982 -164 838 -258 q 1206 117 1125 -69 l 1244 117 q 1015 -191 1179 -81 q 657 -300 851 -300 q 235 -129 404 -300 q 65 301 65 41 q 254 773 65 582 q 707 965 442 965 q 1061 832 930 965 q 1192 500 1192 699 q 1086 169 1192 317 q 817 21 981 21 q 714 114 714 21 q 726 211 714 159 l 724 214 q 458 21 574 21 q 370 69 404 21 q 336 178 336 117 q 465 495 336 335 q 710 654 594 654 q 825 559 805 654 l 828 559 l 848 635 l 956 650 m 802 525 q 778 594 802 566 q 718 623 755 623 q 536 462 629 623 q 443 199 443 302 q 465 132 443 161 q 521 103 488 103 q 664 186 587 103 q 771 368 741 270 q 802 525 802 467 z "},"A":{"ha":983,"x_min":39,"x_max":957,"o":"m 582 283 l 293 283 l 200 35 l 368 35 l 368 0 l 39 0 l 39 35 l 164 35 l 496 930 l 517 930 l 835 35 l 957 35 l 957 0 l 524 0 l 524 35 l 671 35 l 582 283 m 306 318 l 570 318 l 441 682 l 439 682 l 306 318 z "},"B":{"ha":970,"x_min":66,"x_max":892,"o":"m 207 35 l 207 875 l 66 875 l 66 909 l 536 909 q 667 902 614 909 q 768 861 720 894 q 839 781 817 829 q 860 690 860 733 q 611 478 860 528 l 611 475 q 892 241 892 429 q 867 144 892 195 q 787 56 842 93 q 674 9 732 18 q 530 0 617 0 l 66 0 l 66 35 l 207 35 m 507 875 l 368 875 l 368 493 l 493 493 q 655 543 620 493 q 690 699 690 592 q 667 820 690 782 q 609 866 644 858 q 507 875 573 875 m 492 458 l 368 458 l 368 35 l 496 35 q 609 45 567 35 q 682 103 652 56 q 711 252 711 151 q 666 409 711 359 q 492 458 621 458 z "},"C":{"ha":825,"x_min":72,"x_max":761,"o":"m 736 920 l 736 650 l 707 650 q 461 896 659 896 q 306 812 355 896 q 257 461 257 729 q 278 161 257 241 q 351 48 299 82 q 465 14 403 14 q 618 75 547 14 q 729 272 690 136 l 761 272 l 750 -5 l 722 -5 q 673 68 707 38 q 453 -21 566 -21 q 191 115 309 -21 q 72 449 72 252 q 189 790 72 650 q 458 930 305 930 q 667 846 576 930 q 707 920 693 888 l 736 920 z "},"D":{"ha":1055,"x_min":62,"x_max":972,"o":"m 204 35 l 204 875 l 62 875 l 62 909 l 492 909 q 735 869 634 909 q 905 711 837 829 q 972 456 972 593 q 898 195 972 310 q 726 40 823 81 q 489 0 629 0 l 62 0 l 62 35 l 204 35 m 366 875 l 366 35 l 484 35 q 635 52 576 35 q 732 125 694 68 q 784 270 770 182 q 798 498 798 357 q 754 751 798 668 q 649 855 711 835 q 486 875 587 875 l 366 875 z "},"E":{"ha":970,"x_min":75,"x_max":890,"o":"m 380 875 l 380 485 l 463 485 q 536 493 506 485 q 590 539 566 502 q 618 656 614 576 l 653 656 l 653 271 l 618 271 q 575 415 612 380 q 463 450 538 450 l 380 450 l 380 35 l 566 35 q 784 101 723 35 q 856 304 844 167 l 890 304 l 882 0 l 75 0 l 75 35 l 220 35 l 220 875 l 75 875 l 75 909 l 848 909 l 864 667 l 829 667 q 757 826 812 777 q 574 875 702 875 l 380 875 z "},"F":{"ha":897,"x_min":77,"x_max":856,"o":"m 220 35 l 220 875 l 77 875 l 77 909 l 844 909 l 856 635 l 825 635 q 802 728 825 648 q 732 842 778 808 q 578 875 686 875 l 380 875 l 380 481 l 418 481 q 512 489 477 481 q 572 534 547 497 q 603 652 597 572 l 637 652 l 637 267 l 603 267 q 575 392 597 353 q 519 440 553 431 q 418 449 486 449 l 380 449 l 380 35 l 541 35 l 541 0 l 77 0 l 77 35 l 220 35 z "},"G":{"ha":983,"x_min":65,"x_max":958,"o":"m 642 304 l 488 304 l 488 339 l 958 339 l 958 304 l 827 304 q 715 55 827 130 q 481 -21 603 -21 q 184 121 302 -21 q 65 454 65 264 q 186 789 65 648 q 489 930 308 930 q 668 876 583 930 q 704 860 694 860 q 747 899 726 860 l 778 899 l 787 652 l 753 652 q 486 896 696 896 q 327 847 377 896 q 266 723 277 798 q 254 509 254 648 q 271 177 254 258 q 339 55 288 96 q 465 14 391 14 q 571 38 525 14 q 630 111 618 62 q 642 256 642 159 l 642 304 z "},"H":{"ha":1129,"x_min":64,"x_max":1065,"o":"m 207 35 l 207 875 l 64 875 l 64 909 l 513 909 l 513 875 l 368 875 l 368 486 l 761 486 l 761 875 l 619 875 l 619 909 l 1065 909 l 1065 875 l 922 875 l 922 35 l 1065 35 l 1065 0 l 619 0 l 619 35 l 761 35 l 761 452 l 368 452 l 368 35 l 513 35 l 513 0 l 64 0 l 64 35 l 207 35 z "},"I":{"ha":593,"x_min":66,"x_max":526,"o":"m 215 35 l 215 875 l 66 875 l 66 909 l 526 909 l 526 875 l 376 875 l 376 35 l 526 35 l 526 0 l 66 0 l 66 35 l 215 35 z "},"J":{"ha":753,"x_min":54,"x_max":686,"o":"m 236 909 l 686 909 l 686 875 l 553 875 l 553 235 q 528 49 553 116 q 427 -69 503 -18 q 262 -121 350 -121 q 116 -76 178 -121 q 54 25 54 -31 q 77 82 54 59 q 132 104 100 104 q 184 84 163 104 q 204 35 204 64 q 193 -5 204 13 q 175 -37 175 -24 q 204 -71 175 -56 q 267 -86 233 -86 q 358 -48 325 -86 q 392 138 392 -10 l 392 875 l 236 875 l 236 909 z "},"K":{"ha":1100,"x_min":102,"x_max":1078,"o":"m 244 35 l 244 875 l 102 875 l 102 909 l 549 909 l 549 875 l 406 875 l 406 35 l 549 35 l 549 0 l 102 0 l 102 35 l 244 35 m 646 909 l 989 909 l 989 875 l 850 875 l 549 566 l 989 35 l 1078 35 l 1078 0 l 631 0 l 631 35 l 787 35 l 421 484 l 800 875 l 646 875 l 646 909 z "},"L":{"ha":897,"x_min":68,"x_max":857,"o":"m 372 875 l 372 35 l 576 35 q 669 43 635 35 q 736 86 703 52 q 787 167 769 120 q 825 297 805 214 l 857 297 l 832 0 l 68 0 l 68 35 l 211 35 l 211 875 l 68 875 l 68 909 l 524 909 l 524 875 l 372 875 z "},"M":{"ha":1171,"x_min":61,"x_max":1099,"o":"m 61 909 l 387 909 l 582 267 l 585 267 l 781 909 l 1099 909 l 1099 875 l 964 875 l 964 35 l 1099 35 l 1099 0 l 671 0 l 671 35 l 810 35 l 810 890 l 807 890 l 536 0 l 505 0 l 235 890 l 232 890 l 232 35 l 371 35 l 371 0 l 61 0 l 61 35 l 197 35 l 197 875 l 61 875 l 61 909 z "},"N":{"ha":1055,"x_min":56,"x_max":1002,"o":"m 864 875 l 864 -21 l 836 -21 l 237 879 l 235 879 l 235 35 l 389 35 l 389 0 l 65 0 l 65 35 l 200 35 l 200 875 l 56 875 l 56 909 l 403 909 l 827 272 l 829 272 l 829 875 l 679 875 l 679 909 l 1002 909 l 1002 875 l 864 875 z "},"O":{"ha":983,"x_min":69,"x_max":914,"o":"m 492 -21 q 192 127 315 -21 q 69 443 69 275 q 198 788 69 645 q 498 930 328 930 q 787 785 659 930 q 914 456 914 640 q 786 122 914 266 q 492 -21 659 -21 m 494 896 q 360 862 420 896 q 280 743 301 827 q 258 447 258 658 q 271 214 258 301 q 333 71 283 127 q 489 14 382 14 q 620 48 554 14 q 705 184 685 83 q 725 496 725 286 q 700 759 725 686 q 621 864 675 831 q 494 896 566 896 z "},"P":{"ha":911,"x_min":68,"x_max":856,"o":"m 374 416 l 374 35 l 521 35 l 521 0 l 68 0 l 68 35 l 212 35 l 212 875 l 68 875 l 68 909 l 536 909 q 775 839 695 909 q 856 665 856 768 q 775 488 856 559 q 505 416 694 416 l 374 416 m 374 875 l 374 452 l 461 452 q 575 463 530 452 q 653 524 621 475 q 686 677 686 574 q 657 812 686 769 q 589 865 629 855 q 492 875 550 875 l 374 875 z "},"Q":{"ha":983,"x_min":69,"x_max":914,"o":"m 831 -253 l 831 -288 q 758 -290 808 -290 q 510 -228 633 -290 q 386 0 386 -166 q 155 180 240 49 q 69 457 69 311 q 195 787 69 643 q 493 930 321 930 q 783 791 652 930 q 914 461 914 652 q 817 169 914 305 q 576 0 719 33 q 626 -201 576 -148 q 831 -253 676 -254 m 494 896 q 356 858 419 896 q 276 734 294 820 q 258 433 258 649 q 270 204 258 287 q 332 68 281 122 q 492 14 382 14 q 632 56 573 14 q 708 193 690 98 q 725 486 725 288 q 702 754 725 677 q 617 863 680 831 q 494 896 554 896 z "},"R":{"ha":1055,"x_min":92,"x_max":1007,"o":"m 235 35 l 235 875 l 92 875 l 92 909 l 590 909 q 750 892 688 909 q 859 822 813 876 q 904 700 904 769 q 838 560 904 614 q 612 479 771 507 l 612 476 q 799 389 726 454 q 872 171 872 325 q 893 58 872 83 q 950 33 913 33 q 1007 43 974 33 l 1007 9 q 893 -11 948 -11 q 735 52 781 -11 q 690 174 689 114 l 693 289 q 655 408 693 349 q 481 467 616 467 l 396 467 l 396 35 l 539 35 l 539 0 l 92 0 l 92 35 l 235 35 m 396 875 l 396 498 l 518 498 q 638 509 597 498 q 704 564 680 519 q 729 705 729 608 q 704 821 729 785 q 643 866 679 858 q 550 875 608 875 l 396 875 z "},"S":{"ha":753,"x_min":82,"x_max":682,"o":"m 625 920 l 629 684 l 597 684 q 358 896 530 896 q 211 843 263 896 q 158 734 158 791 q 202 646 158 682 q 361 589 245 609 q 538 540 477 569 q 641 444 599 511 q 682 290 682 377 q 595 68 682 157 q 379 -21 508 -21 q 170 57 274 -21 l 106 0 l 82 0 l 82 254 l 111 254 q 223 74 151 134 q 380 14 295 14 q 536 70 465 14 q 607 211 607 125 q 558 332 607 283 q 398 400 509 381 q 229 443 288 418 q 128 529 170 468 q 86 665 86 591 q 159 849 86 768 q 358 930 233 930 q 554 864 463 930 q 597 920 579 888 l 625 920 z "},"T":{"ha":897,"x_min":37,"x_max":860,"o":"m 61 909 l 836 909 l 860 600 l 825 600 q 741 815 793 755 q 603 875 688 875 l 529 875 l 529 35 l 692 35 l 692 0 l 205 0 l 205 35 l 368 35 l 368 875 l 294 875 q 156 815 209 875 q 72 600 104 755 l 37 600 l 61 909 z "},"U":{"ha":1055,"x_min":79,"x_max":1007,"o":"m 831 875 l 682 875 l 682 909 l 1007 909 l 1007 875 l 864 875 l 864 325 q 846 149 864 205 q 781 53 828 92 q 667 -3 733 14 q 530 -21 601 -21 q 312 26 381 -21 q 227 141 243 73 q 211 325 211 210 l 211 875 l 79 875 l 79 909 l 514 909 l 514 875 l 371 875 l 371 340 q 381 167 371 230 q 436 62 391 104 q 578 20 481 20 q 719 52 656 20 q 806 138 781 84 q 831 340 831 193 l 831 875 z "},"V":{"ha":983,"x_min":31,"x_max":953,"o":"m 31 909 l 465 909 l 465 875 l 321 875 l 557 233 l 559 233 l 778 875 l 631 875 l 631 909 l 953 909 l 953 875 l 814 875 l 509 -21 l 490 -21 l 153 875 l 31 875 l 31 909 z "},"W":{"ha":1346,"x_min":29,"x_max":1317,"o":"m 771 604 l 936 204 l 1185 875 l 1053 875 l 1053 909 l 1317 909 l 1317 875 l 1223 875 l 888 -21 l 864 -21 l 690 400 l 521 -21 l 496 -21 l 131 875 l 29 875 l 29 909 l 978 909 l 978 875 l 880 875 l 771 604 m 661 875 l 753 652 l 843 875 l 661 875 m 571 196 l 671 447 l 496 875 l 294 875 l 571 196 z "},"X":{"ha":1129,"x_min":60,"x_max":1089,"o":"m 624 518 l 975 35 l 1089 35 l 1089 0 l 632 0 l 632 35 l 787 35 l 526 395 l 241 35 l 419 35 l 419 0 l 60 0 l 60 35 l 197 35 l 503 424 l 175 875 l 60 875 l 60 909 l 513 909 l 513 875 l 363 875 l 600 550 l 859 875 l 703 875 l 703 909 l 1032 909 l 1032 875 l 904 875 l 624 518 z "},"Y":{"ha":1055,"x_min":41,"x_max":1032,"o":"m 41 909 l 496 909 l 496 875 l 346 875 l 612 473 l 875 875 l 710 875 l 710 909 l 1032 909 l 1032 875 l 914 875 l 629 440 l 629 35 l 781 35 l 781 0 l 314 0 l 314 35 l 468 35 l 468 416 l 163 875 l 41 875 l 41 909 z "},"Z":{"ha":825,"x_min":47,"x_max":760,"o":"m 745 0 l 47 0 l 47 35 l 570 875 l 355 875 q 192 827 238 875 q 125 665 146 779 l 93 665 l 107 909 l 760 909 l 760 885 l 229 35 l 452 35 q 595 53 547 35 q 681 146 644 72 q 726 298 718 220 l 760 298 l 745 0 z "},"[":{"ha":463,"x_min":131,"x_max":424,"o":"m 131 -335 l 131 913 l 424 913 l 424 878 l 235 878 l 235 -301 l 424 -301 l 424 -335 l 131 -335 z "},"\\":{"ha":390,"x_min":0,"x_max":390,"o":"m 0 930 l 74 930 l 390 -21 l 317 -21 l 0 930 z "},"]":{"ha":463,"x_min":39,"x_max":332,"o":"m 332 913 l 332 -335 l 39 -335 l 39 -300 l 228 -300 l 228 878 l 39 878 l 39 913 l 332 913 z "},"^":{"ha":652,"x_min":25,"x_max":627,"o":"m 340 930 l 627 444 l 545 444 l 326 815 l 110 444 l 25 444 l 313 930 l 340 930 z "},"_":{"ha":694,"x_min":-8,"x_max":703,"o":"m 703 -174 l -8 -174 l -8 -104 l 703 -104 l 703 -174 z "},"`":{"ha":463,"x_min":37,"x_max":328,"o":"m 310 635 l 140 737 q 52 802 66 783 q 37 840 37 821 q 54 877 37 861 q 92 893 71 893 q 134 878 116 893 q 192 815 153 862 l 328 652 l 310 635 z "},"a":{"ha":681,"x_min":71,"x_max":639,"o":"m 411 304 l 411 374 q 397 485 411 458 q 322 511 383 511 q 212 469 212 511 q 221 443 212 457 q 231 408 231 428 q 212 366 231 380 q 171 351 194 351 q 125 370 141 351 q 109 414 109 389 q 172 505 109 468 q 349 542 235 542 q 481 521 439 542 q 533 469 524 500 q 543 380 543 437 l 543 131 q 551 62 543 76 q 575 49 559 49 q 623 82 600 49 l 639 82 q 524 -17 621 -17 q 411 92 429 -17 q 225 -17 332 -17 q 113 21 155 -17 q 71 115 71 60 q 411 304 71 288 m 411 200 l 411 273 q 245 236 286 269 q 205 140 205 203 q 230 70 205 95 q 285 45 254 45 q 357 72 325 45 q 400 125 389 98 q 411 200 411 153 z "},"b":{"ha":753,"x_min":41,"x_max":685,"o":"m 268 920 l 268 443 l 271 443 q 437 550 321 550 q 611 466 537 550 q 685 269 685 381 q 612 71 685 159 q 444 -17 540 -17 q 271 107 329 -17 l 268 107 l 268 -8 q 140 0 221 0 l 41 0 l 41 35 l 136 35 l 136 875 l 41 875 l 41 909 l 136 909 q 268 920 220 909 m 436 18 q 518 72 504 18 q 533 273 533 125 q 518 472 533 424 q 433 519 503 519 q 339 487 380 519 q 282 409 298 454 q 267 253 267 365 q 318 81 267 144 q 436 18 370 18 z "},"c":{"ha":593,"x_min":58,"x_max":555,"o":"m 526 184 l 555 184 q 475 35 535 86 q 332 -17 416 -17 q 138 68 217 -17 q 58 264 58 153 q 140 464 58 378 q 342 550 221 550 q 482 506 428 550 q 536 408 536 463 q 518 359 536 381 q 469 338 499 338 q 421 356 440 338 q 401 404 401 374 q 418 446 401 425 q 435 473 435 466 q 410 506 435 492 q 345 519 385 519 q 240 481 274 519 q 205 321 205 444 q 212 139 205 198 q 246 47 218 81 q 338 14 274 14 q 526 184 472 14 z "},"d":{"ha":737,"x_min":58,"x_max":704,"o":"m 612 920 l 612 35 l 704 35 l 704 0 l 628 0 q 476 -8 556 0 l 476 103 l 473 103 q 300 -17 419 -17 q 131 68 204 -17 q 58 261 58 153 q 135 463 58 376 q 317 550 212 550 q 473 454 423 550 l 476 454 l 476 875 l 353 875 l 353 909 l 476 909 q 612 920 545 909 m 321 519 q 228 464 247 519 q 210 240 210 409 q 233 56 210 94 q 310 18 257 18 q 410 57 367 18 q 467 145 454 96 q 481 306 481 195 q 438 466 481 412 q 321 519 395 519 z "},"e":{"ha":593,"x_min":53,"x_max":547,"o":"m 547 307 l 204 307 q 227 60 199 106 q 323 14 254 14 q 518 180 467 14 l 547 180 q 463 31 525 79 q 323 -17 400 -17 q 134 64 214 -17 q 53 268 53 145 q 132 469 53 387 q 315 550 211 550 q 474 486 406 550 q 547 307 543 421 m 204 338 l 401 338 q 407 411 407 386 q 309 519 407 519 q 232 493 260 519 q 204 422 204 467 l 204 338 z "},"f":{"ha":449,"x_min":35,"x_max":542,"o":"m 147 35 l 147 498 l 35 498 l 35 533 l 147 533 q 221 816 142 713 q 411 920 301 920 q 503 889 464 920 q 542 815 542 859 q 523 765 542 785 q 476 745 505 745 q 434 762 452 745 q 416 804 416 779 q 461 871 416 844 q 401 889 441 889 q 330 866 363 889 q 288 797 296 843 q 281 647 281 750 l 281 533 l 407 533 l 407 498 l 281 498 l 281 35 l 395 35 l 395 0 l 46 0 l 46 35 l 147 35 z "},"g":{"ha":681,"x_min":65,"x_max":656,"o":"m 510 463 q 550 351 550 406 q 475 211 550 258 q 353 163 400 163 l 319 161 q 254 164 295 161 q 211 168 214 168 q 149 144 184 168 q 114 93 114 120 q 132 57 114 69 q 224 45 151 45 l 456 54 q 574 8 528 54 q 619 -123 619 -38 q 537 -291 619 -223 q 310 -359 455 -359 q 131 -314 197 -359 q 65 -208 65 -269 q 86 -145 65 -171 q 180 -78 107 -120 q 68 46 68 -51 q 208 193 68 176 l 208 196 q 100 351 100 248 q 167 493 100 435 q 325 550 234 550 q 490 482 424 550 q 599 550 539 550 q 639 534 622 550 q 656 492 656 519 q 641 454 656 468 q 608 440 626 440 q 570 464 583 440 q 549 488 557 488 q 510 463 532 488 m 322 515 q 241 482 256 515 q 225 371 225 449 q 240 226 225 258 q 323 193 254 193 q 408 227 394 193 q 422 389 422 260 q 397 492 422 469 q 322 515 372 515 m 220 -78 q 155 -199 155 -119 q 328 -325 155 -325 q 509 -273 437 -325 q 581 -153 581 -222 q 545 -89 581 -111 q 464 -66 509 -66 q 385 -71 446 -66 q 293 -75 323 -75 l 220 -78 z "},"h":{"ha":766,"x_min":41,"x_max":729,"o":"m 147 35 l 147 875 l 41 875 l 41 909 l 143 909 q 279 920 235 909 l 279 414 l 282 414 q 472 542 350 542 q 568 516 522 542 q 628 444 615 491 q 642 292 642 396 l 642 35 l 729 35 l 729 0 l 422 0 l 422 35 l 510 35 l 510 304 q 504 461 510 414 q 443 507 498 507 q 343 457 384 507 q 291 354 303 406 q 279 182 279 301 l 279 35 l 367 35 l 367 0 l 52 0 l 52 35 l 147 35 z "},"i":{"ha":376,"x_min":37,"x_max":353,"o":"m 127 804 q 150 856 127 834 q 201 878 172 878 q 253 856 231 878 q 275 804 275 835 q 254 751 275 772 q 201 730 232 730 q 149 752 171 730 q 127 804 127 773 m 264 543 l 264 35 l 353 35 l 353 0 l 37 0 l 37 35 l 132 35 l 132 498 l 37 498 l 37 533 l 134 533 q 264 543 203 533 z "},"j":{"ha":435,"x_min":-33,"x_max":307,"o":"m 160 804 q 182 856 160 834 q 233 878 203 878 q 285 856 263 878 q 307 804 307 835 q 286 751 307 772 q 233 730 264 730 q 181 752 203 730 q 160 804 160 773 m 301 543 l 301 54 q 281 -160 301 -78 q 207 -299 262 -243 q 85 -355 152 -355 q 1 -329 35 -355 q -33 -267 -33 -302 q -16 -225 -33 -242 q 28 -208 2 -208 q 67 -222 52 -208 q 82 -253 82 -237 q 73 -282 82 -264 q 64 -309 64 -301 q 89 -326 64 -326 q 153 -275 136 -326 q 170 -62 170 -223 l 170 498 l 47 498 l 47 533 l 168 533 q 301 543 248 533 z "},"k":{"ha":737,"x_min":35,"x_max":728,"o":"m 132 35 l 132 875 l 35 875 l 35 909 l 125 909 q 264 920 192 909 l 264 35 l 351 35 l 351 0 l 35 0 l 35 35 l 132 35 m 503 35 l 279 297 l 496 498 l 382 498 l 382 533 l 668 533 l 668 498 l 539 498 l 389 359 l 668 35 l 728 35 l 728 0 l 406 0 l 406 35 l 503 35 z "},"l":{"ha":376,"x_min":28,"x_max":353,"o":"m 125 35 l 125 875 l 28 875 l 28 909 l 121 909 q 257 920 214 909 l 257 35 l 353 35 l 353 0 l 28 0 l 28 35 l 125 35 z "},"m":{"ha":1129,"x_min":50,"x_max":1095,"o":"m 146 35 l 146 498 l 50 498 l 50 533 l 110 533 q 278 542 216 533 l 278 411 l 281 411 q 472 542 334 542 q 637 403 622 542 l 640 403 q 836 542 699 542 q 939 511 897 542 q 990 441 981 481 q 1000 309 1000 401 l 1000 35 l 1095 35 l 1095 0 l 779 0 l 779 35 l 868 35 l 868 370 q 859 479 868 449 q 810 509 850 509 q 697 447 755 509 q 639 211 639 385 l 639 35 l 726 35 l 726 0 l 419 0 l 419 35 l 507 35 l 507 297 q 496 479 507 450 q 443 509 485 509 q 342 458 385 509 q 289 359 299 407 q 278 205 278 311 l 278 35 l 366 35 l 366 0 l 50 0 l 50 35 l 146 35 z "},"n":{"ha":753,"x_min":41,"x_max":739,"o":"m 138 35 l 138 498 l 41 498 l 41 533 l 103 533 q 269 543 195 533 l 269 411 l 272 411 q 469 550 342 550 q 567 519 529 550 q 620 448 606 489 q 633 319 633 406 l 633 35 l 739 35 l 739 0 l 411 0 l 411 35 l 501 35 l 501 374 q 491 481 501 452 q 440 511 481 511 q 322 444 374 511 q 269 262 269 376 l 269 35 l 358 35 l 358 0 l 41 0 l 41 35 l 138 35 z "},"o":{"ha":681,"x_min":61,"x_max":621,"o":"m 61 268 q 142 468 61 385 q 342 550 222 550 q 539 471 458 550 q 621 273 621 392 q 536 67 621 152 q 338 -17 452 -17 q 143 65 225 -17 q 61 268 61 148 m 468 268 q 459 433 468 393 q 421 496 451 473 q 340 519 392 519 q 260 495 292 519 q 221 431 229 471 q 214 267 214 391 q 223 100 214 141 q 263 37 232 60 q 340 14 294 14 q 419 37 388 14 q 459 102 451 60 q 468 268 468 144 z "},"p":{"ha":753,"x_min":37,"x_max":688,"o":"m 269 89 l 269 -317 l 379 -317 l 379 -355 l 46 -355 l 46 -317 l 138 -317 l 138 498 l 37 498 l 37 533 l 114 533 q 269 542 198 533 l 269 435 l 272 435 q 446 550 328 550 q 615 470 542 550 q 688 281 688 391 q 608 78 688 163 q 431 -8 528 -8 q 272 89 328 -8 l 269 89 m 536 265 q 529 435 536 392 q 497 499 522 478 q 440 519 471 519 q 334 475 374 519 q 281 389 294 431 q 269 265 269 347 q 281 134 269 179 q 336 55 292 88 q 433 22 380 22 q 513 70 489 22 q 536 265 536 117 z "},"q":{"ha":753,"x_min":71,"x_max":721,"o":"m 489 89 l 486 89 q 328 -8 430 -8 q 150 78 230 -8 q 71 281 71 163 q 143 470 71 391 q 313 550 216 550 q 486 435 430 550 l 489 435 l 489 542 q 644 533 570 533 l 721 533 l 721 498 l 621 498 l 621 -317 l 713 -317 l 713 -355 l 379 -355 l 379 -317 l 489 -317 l 489 89 m 489 265 q 476 390 489 347 q 424 476 464 432 q 318 519 385 519 q 260 498 286 519 q 229 429 235 476 q 222 265 222 382 q 246 70 222 117 q 325 22 270 22 q 422 55 379 22 q 477 134 466 88 q 489 265 489 179 z "},"r":{"ha":521,"x_min":26,"x_max":501,"o":"m 136 35 l 136 498 l 26 498 l 26 533 l 138 533 q 268 542 223 533 l 268 414 l 271 414 q 411 542 318 542 q 476 517 452 542 q 501 457 501 492 q 481 405 501 425 q 429 385 461 385 q 371 443 371 385 l 374 472 q 359 488 374 488 q 302 427 337 488 q 268 243 268 367 l 268 35 l 380 35 l 380 0 l 26 0 l 26 35 l 136 35 z "},"s":{"ha":521,"x_min":64,"x_max":467,"o":"m 424 539 l 424 387 l 396 387 q 244 519 365 519 q 157 492 192 519 q 122 429 122 465 q 147 382 122 399 q 264 353 172 365 q 467 168 467 328 q 414 36 467 89 q 283 -17 361 -17 q 135 46 207 -17 l 87 5 l 64 5 l 64 205 l 87 205 q 283 14 146 14 q 378 47 336 14 q 421 125 421 80 q 396 181 421 162 q 258 216 370 200 q 68 386 68 244 q 119 503 68 456 q 244 550 170 550 q 375 498 322 550 q 403 539 389 513 l 424 539 z "},"t":{"ha":521,"x_min":33,"x_max":486,"o":"m 286 688 l 286 533 l 447 533 l 447 498 l 286 498 l 286 163 q 296 62 286 89 q 349 35 306 35 q 411 56 381 35 q 457 123 441 78 l 486 123 q 297 -8 455 -8 q 199 16 231 -8 q 161 75 168 40 q 154 171 154 111 l 154 498 l 33 498 l 33 533 l 154 533 l 154 676 q 286 688 221 676 z "},"u":{"ha":753,"x_min":31,"x_max":715,"o":"m 624 533 l 624 35 l 715 35 l 715 0 l 624 0 q 490 -8 518 0 l 490 118 l 488 118 q 296 -8 427 -8 q 175 32 220 -8 q 129 199 129 71 l 129 498 l 31 498 l 31 533 l 261 533 l 261 175 q 271 59 261 91 q 323 26 281 26 q 439 93 386 26 q 492 294 492 160 l 492 498 l 383 498 l 383 533 l 624 533 z "},"v":{"ha":753,"x_min":26,"x_max":728,"o":"m 644 498 l 387 -21 l 370 -21 l 109 498 l 26 498 l 26 533 l 359 533 l 359 498 l 257 498 l 435 138 l 610 498 l 507 498 l 507 533 l 728 533 l 728 498 l 644 498 z "},"w":{"ha":983,"x_min":28,"x_max":957,"o":"m 875 498 l 679 -17 l 656 -17 l 500 353 l 351 -17 l 329 -17 l 113 498 l 28 498 l 28 533 l 343 533 l 343 498 l 252 498 l 392 164 l 541 533 l 562 533 l 717 164 l 842 498 l 743 498 l 743 533 l 957 533 l 957 498 l 875 498 z "},"x":{"ha":753,"x_min":29,"x_max":724,"o":"m 427 310 l 659 35 l 724 35 l 724 0 l 406 0 l 406 35 l 494 35 l 342 216 l 176 35 l 283 35 l 283 0 l 33 0 l 33 35 l 136 35 l 322 239 l 106 498 l 29 498 l 29 533 l 359 533 l 359 498 l 269 498 l 406 334 l 555 498 l 452 498 l 452 533 l 697 533 l 697 498 l 596 498 l 427 310 z "},"y":{"ha":753,"x_min":29,"x_max":730,"o":"m 253 498 l 443 127 l 608 498 l 490 498 l 490 533 l 730 533 l 730 498 l 640 498 l 367 -121 q 267 -307 308 -254 q 167 -359 226 -359 q 110 -336 130 -359 q 90 -283 90 -313 q 107 -239 90 -256 q 149 -222 125 -222 q 200 -253 182 -222 q 231 -283 218 -283 q 270 -250 249 -283 q 334 -121 291 -217 l 378 -21 l 110 498 l 29 498 l 29 533 l 355 533 l 355 498 l 253 498 z "},"z":{"ha":593,"x_min":58,"x_max":534,"o":"m 79 321 l 79 533 l 534 533 l 534 504 l 208 31 l 301 31 q 434 69 385 31 q 509 228 482 107 l 534 228 l 534 0 l 58 0 l 58 35 l 383 503 l 290 503 q 213 493 245 503 q 151 445 181 484 q 107 321 121 405 l 79 321 z "},"{":{"ha":667,"x_min":167,"x_max":545,"o":"m 545 -321 l 545 -345 q 358 -249 425 -326 q 290 -83 290 -171 q 306 28 290 -31 q 321 134 321 86 q 283 219 321 176 q 167 275 245 262 l 167 301 q 283 357 245 313 q 321 443 321 401 q 306 549 321 490 q 290 660 290 607 q 358 825 290 747 q 545 921 425 903 l 545 896 q 429 836 466 879 q 392 742 392 792 q 408 629 392 685 q 422 522 422 570 q 374 392 422 456 q 222 292 326 329 l 222 289 q 371 188 319 253 q 422 54 422 123 q 408 -53 422 6 q 392 -165 392 -109 q 429 -258 392 -216 q 545 -321 466 -300 z "},"|":{"ha":732,"x_min":329,"x_max":404,"o":"m 329 930 l 404 930 l 404 -355 l 329 -355 l 329 930 z "},"}":{"ha":667,"x_min":122,"x_max":500,"o":"m 122 897 l 122 921 q 309 825 241 903 q 376 660 376 747 q 361 549 376 607 q 346 443 346 490 q 384 357 346 401 q 500 301 421 313 l 500 275 q 384 219 421 263 q 346 134 346 176 q 361 28 346 86 q 376 -83 376 -31 q 309 -248 376 -170 q 122 -345 241 -326 l 122 -319 q 238 -259 201 -302 q 275 -165 275 -216 q 258 -53 275 -109 q 244 54 244 6 q 292 184 244 121 q 444 285 340 248 l 444 288 q 296 388 347 323 q 244 522 244 453 q 258 629 244 570 q 275 742 275 685 q 238 835 275 793 q 122 897 201 877 z "},"~":{"ha":926,"x_min":100,"x_max":827,"o":"m 794 545 l 827 545 q 775 401 823 452 q 659 350 727 350 q 582 362 621 350 q 420 425 543 375 q 257 475 298 475 q 132 351 156 475 l 100 351 q 154 500 106 454 q 262 546 201 546 q 521 464 328 546 q 669 419 623 419 q 753 450 718 419 q 794 545 787 481 z "},"Ä":{"ha":983,"x_min":39,"x_max":957,"o":"m 582 283 l 293 283 l 200 35 l 368 35 l 368 0 l 39 0 l 39 35 l 164 35 l 496 930 l 517 930 l 835 35 l 957 35 l 957 0 l 524 0 l 524 35 l 671 35 l 582 283 m 306 318 l 570 318 l 441 682 l 439 682 l 306 318 m 570 1112 q 590 1161 570 1141 q 637 1181 610 1181 q 686 1161 666 1181 q 705 1112 705 1141 q 686 1064 705 1084 q 637 1044 666 1044 q 589 1064 609 1044 q 570 1112 570 1084 m 279 1112 q 299 1161 279 1141 q 347 1181 319 1181 q 395 1161 376 1181 q 415 1112 415 1141 q 395 1064 415 1084 q 347 1044 376 1044 q 299 1064 319 1044 q 279 1112 279 1084 z "},"Å":{"ha":983,"x_min":39,"x_max":957,"o":"m 582 283 l 293 283 l 200 35 l 368 35 l 368 0 l 39 0 l 39 35 l 164 35 l 496 930 l 517 930 l 835 35 l 957 35 l 957 0 l 524 0 l 524 35 l 671 35 l 582 283 m 306 318 l 570 318 l 441 682 l 439 682 l 306 318 m 378 1114 q 412 1195 378 1162 q 493 1229 446 1229 q 573 1195 540 1229 q 607 1114 607 1162 q 573 1034 607 1067 q 493 1000 540 1000 q 411 1033 445 1000 q 378 1114 378 1066 m 576 1115 q 552 1174 576 1149 q 492 1198 527 1198 q 433 1174 458 1198 q 408 1115 408 1149 q 433 1056 408 1081 q 492 1031 458 1031 q 552 1056 527 1031 q 576 1115 576 1080 z "},"Ç":{"ha":825,"x_min":72,"x_max":761,"o":"m 326 -248 l 326 -216 q 400 -224 367 -224 q 451 -211 431 -224 q 472 -175 472 -197 q 395 -132 472 -132 q 400 -17 398 -96 q 168 143 264 14 q 72 449 72 273 q 189 790 72 650 q 458 930 305 930 q 667 846 576 930 q 707 920 693 888 l 736 920 l 736 650 l 707 650 q 461 896 655 896 q 306 814 355 896 q 257 461 257 733 q 278 161 257 241 q 351 48 299 82 q 465 14 403 14 q 618 75 547 14 q 729 272 690 136 l 761 272 l 750 -5 l 722 -5 q 673 68 707 38 q 449 -21 566 -21 l 435 -21 l 435 -60 q 525 -82 494 -56 q 557 -147 557 -107 q 514 -228 557 -198 q 415 -257 471 -257 q 326 -248 376 -257 z "},"É":{"ha":970,"x_min":75,"x_max":890,"o":"m 380 875 l 380 485 l 463 485 q 536 493 506 485 q 590 539 566 502 q 618 656 614 576 l 653 656 l 653 271 l 618 271 q 575 415 612 380 q 463 450 538 450 l 380 450 l 380 35 l 566 35 q 784 101 723 35 q 856 304 844 167 l 890 304 l 882 0 l 75 0 l 75 35 l 220 35 l 220 875 l 75 875 l 75 909 l 848 909 l 864 667 l 829 667 q 757 826 812 777 q 574 875 702 875 l 380 875 m 406 983 l 389 1000 l 524 1164 q 581 1225 562 1209 q 623 1242 600 1242 q 662 1225 645 1242 q 679 1190 679 1208 q 657 1142 679 1162 q 576 1086 635 1122 l 406 983 z "},"Ñ":{"ha":1055,"x_min":56,"x_max":1002,"o":"m 864 875 l 864 -21 l 836 -21 l 237 879 l 235 879 l 235 35 l 389 35 l 389 0 l 65 0 l 65 35 l 200 35 l 200 875 l 56 875 l 56 909 l 403 909 l 827 272 l 829 272 l 829 875 l 679 875 l 679 909 l 1002 909 l 1002 875 l 864 875 m 715 1186 l 742 1186 q 702 1074 741 1112 q 613 1035 663 1035 q 499 1065 568 1035 q 406 1095 430 1095 q 342 1035 355 1095 l 316 1035 q 354 1149 316 1112 q 446 1186 393 1186 q 559 1157 493 1186 q 653 1128 625 1128 q 715 1186 699 1128 z "},"Ö":{"ha":983,"x_min":69,"x_max":914,"o":"m 492 -21 q 192 127 315 -21 q 69 443 69 275 q 198 788 69 645 q 498 930 328 930 q 787 785 659 930 q 914 456 914 640 q 786 122 914 266 q 492 -21 659 -21 m 494 896 q 360 862 420 896 q 280 743 301 827 q 258 447 258 658 q 271 214 258 301 q 333 71 283 127 q 489 14 382 14 q 620 48 554 14 q 705 184 685 83 q 725 496 725 286 q 700 759 725 686 q 621 864 675 831 q 494 896 566 896 m 570 1112 q 590 1161 570 1141 q 637 1181 610 1181 q 686 1161 666 1181 q 705 1112 705 1141 q 686 1064 705 1084 q 637 1044 666 1044 q 589 1064 609 1044 q 570 1112 570 1084 m 279 1112 q 299 1161 279 1141 q 347 1181 319 1181 q 395 1161 376 1181 q 415 1112 415 1141 q 395 1064 415 1084 q 347 1044 376 1044 q 299 1064 319 1044 q 279 1112 279 1084 z "},"Ü":{"ha":1055,"x_min":79,"x_max":1007,"o":"m 831 875 l 682 875 l 682 909 l 1007 909 l 1007 875 l 864 875 l 864 325 q 846 149 864 205 q 781 53 828 92 q 667 -3 733 14 q 530 -21 601 -21 q 312 26 381 -21 q 227 141 243 73 q 211 325 211 210 l 211 875 l 79 875 l 79 909 l 514 909 l 514 875 l 371 875 l 371 340 q 381 167 371 230 q 436 62 391 104 q 578 20 481 20 q 719 52 656 20 q 806 138 781 84 q 831 340 831 193 l 831 875 m 651 1112 q 671 1161 651 1141 q 719 1181 691 1181 q 767 1161 747 1181 q 787 1112 787 1141 q 767 1064 787 1084 q 719 1044 747 1044 q 671 1064 690 1044 q 651 1112 651 1084 m 361 1112 q 381 1161 361 1141 q 429 1181 401 1181 q 477 1161 457 1181 q 496 1112 496 1141 q 477 1064 496 1084 q 429 1044 457 1044 q 380 1064 400 1044 q 361 1112 361 1084 z "},"á":{"ha":681,"x_min":71,"x_max":639,"o":"m 411 304 l 411 374 q 397 485 411 458 q 322 511 383 511 q 212 469 212 511 q 221 443 212 457 q 231 408 231 428 q 212 366 231 380 q 171 351 194 351 q 125 370 141 351 q 109 414 109 389 q 172 505 109 468 q 349 542 235 542 q 481 521 439 542 q 533 469 524 500 q 543 380 543 437 l 543 131 q 551 62 543 76 q 575 49 559 49 q 623 82 600 49 l 639 82 q 524 -17 621 -17 q 411 92 429 -17 q 225 -17 332 -17 q 113 21 155 -17 q 71 115 71 60 q 411 304 71 288 m 411 200 l 411 273 q 245 236 286 269 q 205 140 205 203 q 230 70 205 95 q 285 45 254 45 q 357 72 325 45 q 400 125 389 98 q 411 200 411 153 m 262 635 l 244 652 l 380 815 q 437 877 418 861 q 479 893 456 893 q 517 877 500 893 q 534 842 534 860 q 512 793 534 813 q 431 737 490 773 l 262 635 z "},"à":{"ha":681,"x_min":71,"x_max":639,"o":"m 411 304 l 411 374 q 397 485 411 458 q 322 511 383 511 q 212 469 212 511 q 221 443 212 457 q 231 408 231 428 q 212 366 231 380 q 171 351 194 351 q 125 370 141 351 q 109 414 109 389 q 172 505 109 468 q 349 542 235 542 q 481 521 439 542 q 533 469 524 500 q 543 380 543 437 l 543 131 q 551 62 543 76 q 575 49 559 49 q 623 82 600 49 l 639 82 q 524 -17 621 -17 q 411 92 429 -17 q 225 -17 332 -17 q 113 21 155 -17 q 71 115 71 60 q 411 304 71 288 m 411 200 l 411 273 q 245 236 286 269 q 205 140 205 203 q 230 70 205 95 q 285 45 254 45 q 357 72 325 45 q 400 125 389 98 q 411 200 411 153 m 420 635 l 250 737 q 162 802 176 783 q 147 840 147 821 q 164 877 147 861 q 201 893 181 893 q 244 878 226 893 q 302 815 262 862 l 437 652 l 420 635 z "},"â":{"ha":681,"x_min":71,"x_max":639,"o":"m 411 304 l 411 374 q 397 485 411 458 q 322 511 383 511 q 212 469 212 511 q 221 443 212 457 q 231 408 231 428 q 212 366 231 380 q 171 351 194 351 q 125 370 141 351 q 109 414 109 389 q 172 505 109 468 q 349 542 235 542 q 481 521 439 542 q 533 469 524 500 q 543 380 543 437 l 543 131 q 551 62 543 76 q 575 49 559 49 q 623 82 600 49 l 639 82 q 524 -17 621 -17 q 411 92 429 -17 q 225 -17 332 -17 q 113 21 155 -17 q 71 115 71 60 q 411 304 71 288 m 411 200 l 411 273 q 245 236 286 269 q 205 140 205 203 q 230 70 205 95 q 285 45 254 45 q 357 72 325 45 q 400 125 389 98 q 411 200 411 153 m 157 647 l 315 876 l 367 876 l 525 647 l 488 647 l 342 775 l 195 647 l 157 647 z "},"ä":{"ha":681,"x_min":71,"x_max":639,"o":"m 411 304 l 411 374 q 397 485 411 458 q 322 511 383 511 q 212 469 212 511 q 221 443 212 457 q 231 408 231 428 q 212 366 231 380 q 171 351 194 351 q 125 370 141 351 q 109 414 109 389 q 172 505 109 468 q 349 542 235 542 q 481 521 439 542 q 533 469 524 500 q 543 380 543 437 l 543 131 q 551 62 543 76 q 575 49 559 49 q 623 82 600 49 l 639 82 q 524 -17 621 -17 q 411 92 429 -17 q 225 -17 332 -17 q 113 21 155 -17 q 71 115 71 60 q 411 304 71 288 m 411 200 l 411 273 q 245 236 286 269 q 205 140 205 203 q 230 70 205 95 q 285 45 254 45 q 357 72 325 45 q 400 125 389 98 q 411 200 411 153 m 418 764 q 438 812 418 792 q 486 832 458 832 q 534 812 515 832 q 554 764 554 793 q 534 715 554 735 q 486 696 515 696 q 438 715 458 696 q 418 764 418 735 m 128 764 q 148 812 128 792 q 196 832 168 832 q 244 812 224 832 q 264 764 264 793 q 244 715 264 735 q 196 696 224 696 q 148 715 168 696 q 128 764 128 735 z "},"ã":{"ha":681,"x_min":71,"x_max":639,"o":"m 411 304 l 411 374 q 397 485 411 458 q 322 511 383 511 q 212 469 212 511 q 221 443 212 457 q 231 408 231 428 q 212 366 231 380 q 171 351 194 351 q 125 370 141 351 q 109 414 109 389 q 172 505 109 468 q 349 542 235 542 q 481 521 439 542 q 533 469 524 500 q 543 380 543 437 l 543 131 q 551 62 543 76 q 575 49 559 49 q 623 82 600 49 l 639 82 q 524 -17 621 -17 q 411 92 429 -17 q 225 -17 332 -17 q 113 21 155 -17 q 71 115 71 60 q 411 304 71 288 m 411 200 l 411 273 q 245 236 286 269 q 205 140 205 203 q 230 70 205 95 q 285 45 254 45 q 357 72 325 45 q 400 125 389 98 q 411 200 411 153 m 528 838 l 554 838 q 514 725 553 764 q 425 686 475 686 q 311 716 380 686 q 218 746 242 746 q 155 686 167 746 l 128 686 q 166 800 128 763 q 258 838 205 838 q 371 808 305 838 q 465 779 437 779 q 528 838 511 779 z "},"å":{"ha":681,"x_min":71,"x_max":639,"o":"m 411 304 l 411 374 q 397 485 411 458 q 322 511 383 511 q 212 469 212 511 q 221 443 212 457 q 231 408 231 428 q 212 366 231 380 q 171 351 194 351 q 125 370 141 351 q 109 414 109 389 q 172 505 109 468 q 349 542 235 542 q 481 521 439 542 q 533 469 524 500 q 543 380 543 437 l 543 131 q 551 62 543 76 q 575 49 559 49 q 623 82 600 49 l 639 82 q 524 -17 621 -17 q 411 92 429 -17 q 225 -17 332 -17 q 113 21 155 -17 q 71 115 71 60 q 411 304 71 288 m 411 200 l 411 273 q 245 236 286 269 q 205 140 205 203 q 230 70 205 95 q 285 45 254 45 q 357 72 325 45 q 400 125 389 98 q 411 200 411 153 m 201 765 q 235 847 201 813 q 316 880 269 880 q 396 847 363 880 q 430 765 430 813 q 396 685 430 718 q 316 652 363 652 q 234 685 268 652 q 201 765 201 718 m 399 766 q 375 825 399 801 q 315 850 350 850 q 256 825 281 850 q 231 766 231 801 q 256 707 231 732 q 315 682 281 682 q 375 707 350 682 q 399 766 399 732 z "},"ç":{"ha":593,"x_min":58,"x_max":555,"o":"m 319 -17 l 319 -60 q 410 -82 378 -56 q 441 -147 441 -107 q 398 -228 441 -198 q 298 -257 355 -257 q 210 -248 262 -257 l 210 -216 q 283 -224 250 -224 q 335 -211 314 -224 q 355 -175 355 -197 q 278 -132 355 -132 q 285 -12 285 -76 q 120 88 182 7 q 58 264 58 169 q 140 464 58 378 q 342 550 222 550 q 482 506 428 550 q 536 408 536 463 q 518 359 536 381 q 469 338 499 338 q 421 356 440 338 q 401 404 401 374 q 418 446 401 425 q 435 473 435 466 q 410 506 435 492 q 345 519 385 519 q 236 477 266 519 q 205 321 205 435 q 227 78 205 142 q 338 14 249 14 q 526 184 472 14 l 555 184 q 319 -17 511 -21 z "},"é":{"ha":593,"x_min":53,"x_max":547,"o":"m 547 307 l 204 307 q 227 60 199 106 q 323 14 254 14 q 518 180 467 14 l 547 180 q 463 31 525 79 q 323 -17 400 -17 q 134 64 214 -17 q 53 268 53 145 q 132 469 53 387 q 315 550 211 550 q 474 486 406 550 q 547 307 543 421 m 204 338 l 401 338 q 407 411 407 386 q 309 519 407 519 q 232 493 260 519 q 204 422 204 467 l 204 338 m 218 635 l 200 652 l 336 815 q 393 877 374 861 q 435 893 412 893 q 473 877 456 893 q 490 842 490 860 q 468 793 490 813 q 387 737 446 773 l 218 635 z "},"è":{"ha":593,"x_min":53,"x_max":547,"o":"m 547 307 l 204 307 q 227 60 199 106 q 323 14 254 14 q 518 180 467 14 l 547 180 q 463 31 525 79 q 323 -17 400 -17 q 134 64 214 -17 q 53 268 53 145 q 132 469 53 387 q 315 550 211 550 q 474 486 406 550 q 547 307 543 421 m 204 338 l 401 338 q 407 411 407 386 q 309 519 407 519 q 232 493 260 519 q 204 422 204 467 l 204 338 m 413 635 l 243 737 q 155 802 170 783 q 140 840 140 821 q 157 877 140 861 q 195 893 174 893 q 237 878 219 893 q 295 815 256 862 l 431 652 l 413 635 z "},"ê":{"ha":593,"x_min":53,"x_max":547,"o":"m 547 307 l 204 307 q 227 60 199 106 q 323 14 254 14 q 518 180 467 14 l 547 180 q 463 31 525 79 q 323 -17 400 -17 q 134 64 214 -17 q 53 268 53 145 q 132 469 53 387 q 315 550 211 550 q 474 486 406 550 q 547 307 543 421 m 204 338 l 401 338 q 407 411 407 386 q 309 519 407 519 q 232 493 260 519 q 204 422 204 467 l 204 338 m 113 647 l 271 876 l 323 876 l 481 647 l 444 647 l 298 775 l 151 647 l 113 647 z "},"ë":{"ha":593,"x_min":53,"x_max":547,"o":"m 547 307 l 204 307 q 227 60 199 106 q 323 14 254 14 q 518 180 467 14 l 547 180 q 463 31 525 79 q 323 -17 400 -17 q 134 64 214 -17 q 53 268 53 145 q 132 469 53 387 q 315 550 211 550 q 474 486 406 550 q 547 307 543 421 m 204 338 l 401 338 q 407 411 407 386 q 309 519 407 519 q 232 493 260 519 q 204 422 204 467 l 204 338 m 374 764 q 394 812 374 792 q 442 832 414 832 q 490 812 471 832 q 510 764 510 793 q 490 715 510 735 q 442 696 471 696 q 394 715 414 696 q 374 764 374 735 m 84 764 q 104 812 84 792 q 152 832 124 832 q 200 812 180 832 q 220 764 220 793 q 200 715 220 735 q 152 696 180 696 q 104 715 123 696 q 84 764 84 735 z "},"í":{"ha":376,"x_min":37,"x_max":382,"o":"m 264 543 l 264 35 l 353 35 l 353 0 l 37 0 l 37 35 l 134 35 l 134 498 l 37 498 l 37 533 l 134 533 q 264 543 203 533 m 109 635 l 92 652 l 227 815 q 284 877 265 861 q 326 893 303 893 q 365 877 348 893 q 382 842 382 860 q 360 793 382 813 q 279 737 338 773 l 109 635 z "},"ì":{"ha":376,"x_min":-5,"x_max":353,"o":"m 264 543 l 264 35 l 353 35 l 353 0 l 37 0 l 37 35 l 134 35 l 134 498 l 37 498 l 37 533 l 134 533 q 264 543 203 533 m 267 635 l 98 737 q 9 802 24 783 q -5 840 -5 821 q 12 877 -5 861 q 49 893 28 893 q 92 878 73 893 q 149 815 110 862 l 285 652 l 267 635 z "},"î":{"ha":376,"x_min":4,"x_max":372,"o":"m 264 543 l 264 35 l 353 35 l 353 0 l 37 0 l 37 35 l 134 35 l 134 498 l 37 498 l 37 533 l 134 533 q 264 543 203 533 m 4 647 l 162 876 l 214 876 l 372 647 l 334 647 l 189 775 l 41 647 l 4 647 z "},"ï":{"ha":376,"x_min":-25,"x_max":401,"o":"m 264 543 l 264 35 l 353 35 l 353 0 l 37 0 l 37 35 l 134 35 l 134 498 l 37 498 l 37 533 l 134 533 q 264 543 203 533 m 265 764 q 285 812 265 792 q 333 832 305 832 q 381 812 361 832 q 401 764 401 793 q 381 715 401 735 q 333 696 361 696 q 285 715 304 696 q 265 764 265 735 m -25 764 q -5 812 -25 792 q 43 832 15 832 q 91 812 71 832 q 111 764 111 793 q 91 715 111 735 q 43 696 71 696 q -5 715 14 696 q -25 764 -25 735 z "},"ñ":{"ha":753,"x_min":41,"x_max":739,"o":"m 138 35 l 138 498 l 41 498 l 41 533 l 103 533 q 269 543 195 533 l 269 411 l 272 411 q 469 550 342 550 q 567 519 529 550 q 620 448 606 489 q 633 319 633 406 l 633 35 l 739 35 l 739 0 l 411 0 l 411 35 l 501 35 l 501 374 q 491 481 501 452 q 440 511 481 511 q 322 444 374 511 q 269 262 269 376 l 269 35 l 358 35 l 358 0 l 41 0 l 41 35 l 138 35 m 564 838 l 590 838 q 550 725 589 764 q 461 686 511 686 q 347 716 416 686 q 254 746 278 746 q 191 686 203 746 l 164 686 q 202 800 164 763 q 294 838 241 838 q 407 808 341 838 q 501 779 473 779 q 564 838 547 779 z "},"ó":{"ha":681,"x_min":61,"x_max":621,"o":"m 61 268 q 142 468 61 385 q 342 550 222 550 q 539 471 458 550 q 621 273 621 392 q 536 67 621 152 q 338 -17 452 -17 q 143 65 225 -17 q 61 268 61 148 m 468 268 q 459 433 468 393 q 421 496 451 473 q 340 519 392 519 q 260 495 292 519 q 221 431 229 471 q 214 267 214 391 q 223 100 214 141 q 263 37 232 60 q 340 14 294 14 q 419 37 388 14 q 459 102 451 60 q 468 268 468 144 m 262 635 l 244 652 l 380 815 q 437 877 418 861 q 479 893 456 893 q 517 877 500 893 q 534 842 534 860 q 512 793 534 813 q 431 737 490 773 l 262 635 z "},"ò":{"ha":681,"x_min":61,"x_max":621,"o":"m 61 268 q 142 468 61 385 q 342 550 222 550 q 539 471 458 550 q 621 273 621 392 q 536 67 621 152 q 338 -17 452 -17 q 143 65 225 -17 q 61 268 61 148 m 468 268 q 459 433 468 393 q 421 496 451 473 q 340 519 392 519 q 260 495 292 519 q 221 431 229 471 q 214 267 214 391 q 223 100 214 141 q 263 37 232 60 q 340 14 294 14 q 419 37 388 14 q 459 102 451 60 q 468 268 468 144 m 420 635 l 250 737 q 162 802 176 783 q 147 840 147 821 q 164 877 147 861 q 201 893 181 893 q 244 878 226 893 q 302 815 262 862 l 437 652 l 420 635 z "},"ô":{"ha":681,"x_min":61,"x_max":621,"o":"m 61 268 q 142 468 61 385 q 342 550 222 550 q 539 471 458 550 q 621 273 621 392 q 536 67 621 152 q 338 -17 452 -17 q 143 65 225 -17 q 61 268 61 148 m 468 268 q 459 433 468 393 q 421 496 451 473 q 340 519 392 519 q 260 495 292 519 q 221 431 229 471 q 214 267 214 391 q 223 100 214 141 q 263 37 232 60 q 340 14 294 14 q 419 37 388 14 q 459 102 451 60 q 468 268 468 144 m 157 647 l 315 876 l 367 876 l 525 647 l 488 647 l 342 775 l 195 647 l 157 647 z "},"ö":{"ha":681,"x_min":61,"x_max":621,"o":"m 61 268 q 142 468 61 385 q 342 550 222 550 q 539 471 458 550 q 621 273 621 392 q 536 67 621 152 q 338 -17 452 -17 q 143 65 225 -17 q 61 268 61 148 m 468 268 q 459 433 468 393 q 421 496 451 473 q 340 519 392 519 q 260 495 292 519 q 221 431 229 471 q 214 267 214 391 q 223 100 214 141 q 263 37 232 60 q 340 14 294 14 q 419 37 388 14 q 459 102 451 60 q 468 268 468 144 m 418 764 q 438 812 418 792 q 486 832 458 832 q 534 812 515 832 q 554 764 554 793 q 534 715 554 735 q 486 696 515 696 q 438 715 458 696 q 418 764 418 735 m 128 764 q 148 812 128 792 q 196 832 168 832 q 244 812 224 832 q 264 764 264 793 q 244 715 264 735 q 196 696 224 696 q 148 715 168 696 q 128 764 128 735 z "},"õ":{"ha":681,"x_min":61,"x_max":621,"o":"m 61 268 q 142 468 61 385 q 342 550 222 550 q 539 471 458 550 q 621 273 621 392 q 536 67 621 152 q 338 -17 452 -17 q 143 65 225 -17 q 61 268 61 148 m 468 268 q 459 433 468 393 q 421 496 451 473 q 340 519 392 519 q 260 495 292 519 q 221 431 229 471 q 214 267 214 391 q 223 100 214 141 q 263 37 232 60 q 340 14 294 14 q 419 37 388 14 q 459 102 451 60 q 468 268 468 144 m 528 838 l 554 838 q 514 725 553 764 q 425 686 475 686 q 311 716 380 686 q 218 746 242 746 q 155 686 167 746 l 128 686 q 166 800 128 763 q 258 838 205 838 q 371 808 305 838 q 465 779 437 779 q 528 838 511 779 z "},"ú":{"ha":753,"x_min":31,"x_max":715,"o":"m 624 533 l 624 35 l 715 35 l 715 0 l 624 0 q 490 -8 518 0 l 490 118 l 488 118 q 296 -8 427 -8 q 175 32 220 -8 q 129 199 129 71 l 129 498 l 31 498 l 31 533 l 261 533 l 261 175 q 271 59 261 91 q 323 26 281 26 q 439 93 386 26 q 492 294 492 160 l 492 498 l 383 498 l 383 533 l 624 533 m 298 635 l 281 652 l 416 815 q 473 877 454 861 q 515 893 492 893 q 554 877 537 893 q 571 842 571 860 q 549 793 571 813 q 468 737 527 773 l 298 635 z "},"ù":{"ha":753,"x_min":31,"x_max":715,"o":"m 624 533 l 624 35 l 715 35 l 715 0 l 624 0 q 490 -8 518 0 l 490 118 l 488 118 q 296 -8 427 -8 q 175 32 220 -8 q 129 199 129 71 l 129 498 l 31 498 l 31 533 l 261 533 l 261 175 q 271 59 261 91 q 323 26 281 26 q 439 93 386 26 q 492 294 492 160 l 492 498 l 383 498 l 383 533 l 624 533 m 456 635 l 286 737 q 198 802 212 783 q 183 840 183 821 q 200 877 183 861 q 237 893 217 893 q 280 878 262 893 q 338 815 298 862 l 473 652 l 456 635 z "},"û":{"ha":753,"x_min":31,"x_max":715,"o":"m 624 533 l 624 35 l 715 35 l 715 0 l 624 0 q 490 -8 518 0 l 490 118 l 488 118 q 296 -8 427 -8 q 175 32 220 -8 q 129 199 129 71 l 129 498 l 31 498 l 31 533 l 261 533 l 261 175 q 271 59 261 91 q 323 26 281 26 q 439 93 386 26 q 492 294 492 160 l 492 498 l 383 498 l 383 533 l 624 533 m 193 647 l 351 876 l 403 876 l 561 647 l 524 647 l 378 775 l 231 647 l 193 647 z "},"ü":{"ha":753,"x_min":31,"x_max":715,"o":"m 624 533 l 624 35 l 715 35 l 715 0 l 624 0 q 490 -8 518 0 l 490 118 l 488 118 q 296 -8 427 -8 q 175 32 220 -8 q 129 199 129 71 l 129 498 l 31 498 l 31 533 l 261 533 l 261 175 q 271 59 261 91 q 323 26 281 26 q 439 93 386 26 q 492 294 492 160 l 492 498 l 383 498 l 383 533 l 624 533 m 454 764 q 474 812 454 792 q 522 832 494 832 q 570 812 551 832 q 590 764 590 793 q 570 715 590 735 q 522 696 551 696 q 474 715 494 696 q 454 764 454 735 m 164 764 q 184 812 164 792 q 232 832 204 832 q 280 812 260 832 q 300 764 300 793 q 280 715 300 735 q 232 696 260 696 q 184 715 203 696 q 164 764 164 735 z "},"†":{"ha":681,"x_min":35,"x_max":646,"o":"m 357 -347 l 323 -347 q 273 289 321 124 q 323 534 315 370 q 203 514 264 534 q 114 494 142 494 q 58 510 81 494 q 35 554 35 526 q 57 596 35 580 q 110 612 80 612 q 237 579 146 612 q 322 571 262 571 q 313 668 322 628 q 282 843 282 798 q 297 904 282 878 q 340 929 311 929 q 385 904 368 929 q 401 846 401 878 q 367 661 401 804 q 357 571 357 623 q 468 591 408 568 q 567 614 528 614 q 646 554 646 614 q 624 510 646 526 q 576 493 603 493 q 485 514 547 493 q 357 534 422 534 q 407 289 364 362 q 357 -347 360 114 z "},"°":{"ha":555,"x_min":69,"x_max":486,"o":"m 69 722 q 131 869 69 808 q 278 930 192 930 q 425 869 363 930 q 486 722 486 808 q 425 575 486 636 q 278 514 363 514 q 131 575 192 514 q 69 722 69 636 m 429 722 q 385 829 429 785 q 278 873 340 873 q 171 829 216 873 q 126 722 126 785 q 171 615 126 660 q 278 571 216 571 q 385 616 340 571 q 429 722 429 661 z "},"¢":{"ha":593,"x_min":58,"x_max":555,"o":"m 407 375 l 282 25 q 338 14 311 14 q 526 184 471 14 l 555 184 q 476 35 536 86 q 330 -17 416 -17 q 269 -9 302 -17 l 183 -253 l 153 -253 l 243 -1 q 108 105 158 30 q 58 264 58 180 q 140 464 58 378 q 342 550 222 550 q 435 533 388 550 l 517 762 l 546 762 l 460 522 q 536 408 536 476 q 518 359 536 381 q 469 338 499 338 q 407 375 423 338 m 257 39 l 421 497 q 345 519 387 519 q 229 467 252 519 q 205 267 205 414 q 216 110 205 157 q 257 39 226 62 z "},"£":{"ha":681,"x_min":31,"x_max":653,"o":"m 52 418 l 195 418 q 154 607 154 529 q 227 807 154 725 q 421 889 300 889 q 576 837 515 889 q 637 715 637 785 q 610 643 637 672 q 549 614 583 614 q 498 635 520 614 q 476 686 476 656 q 496 735 476 716 q 543 754 516 754 q 563 751 555 754 q 575 747 570 747 q 589 765 589 747 q 544 823 589 791 q 435 856 500 856 q 321 812 363 856 q 278 697 278 768 q 296 581 278 648 l 340 418 l 503 418 l 503 383 l 347 383 l 350 332 q 298 147 350 249 q 509 114 443 114 q 580 136 542 114 q 619 225 618 159 l 653 225 q 591 43 649 103 q 464 -17 534 -17 q 258 74 371 -17 q 126 -17 192 -17 q 59 6 87 -17 q 31 66 31 30 q 66 141 31 111 q 153 171 101 171 q 224 166 191 171 q 258 161 256 161 q 264 201 264 186 q 211 383 264 279 l 52 383 l 52 418 m 233 96 q 134 132 175 132 q 84 115 108 132 q 61 69 61 98 q 79 30 61 45 q 118 16 96 16 q 233 96 183 16 z "},"§":{"ha":521,"x_min":39,"x_max":482,"o":"m 157 478 q 53 676 53 561 q 117 827 53 764 q 273 890 180 890 q 400 850 349 890 q 452 762 452 810 q 433 714 452 734 q 387 694 414 694 q 345 714 362 694 q 328 755 328 734 q 349 802 328 782 q 355 808 349 803 q 361 821 361 812 q 335 846 361 836 q 269 857 309 857 q 155 817 201 857 q 109 718 109 777 q 142 631 109 672 q 289 537 176 590 q 443 419 403 484 q 482 272 482 353 q 370 87 482 144 q 463 -113 463 -1 q 403 -278 463 -211 q 244 -346 344 -346 q 119 -309 172 -346 q 66 -218 66 -271 q 87 -165 66 -185 q 134 -146 108 -146 q 174 -162 158 -146 q 191 -201 191 -178 q 163 -256 191 -240 q 153 -261 161 -256 q 144 -272 144 -267 q 169 -299 144 -285 q 240 -313 194 -313 q 364 -267 322 -313 q 406 -163 406 -220 q 363 -55 406 -94 q 216 39 321 -17 q 75 158 111 96 q 39 296 39 220 q 157 478 39 438 m 191 457 q 108 409 134 444 q 82 335 82 374 q 118 247 82 288 q 230 168 153 205 q 339 110 306 130 q 437 236 437 155 q 278 416 437 342 q 191 457 245 427 z "},"•":{"ha":486,"x_min":74,"x_max":414,"o":"m 74 460 q 124 579 74 530 q 244 629 174 629 q 364 579 314 629 q 414 460 414 530 q 364 339 414 389 q 244 289 315 289 q 124 339 174 289 q 74 460 74 389 z "},"¶":{"ha":629,"x_min":-8,"x_max":633,"o":"m 543 872 l 543 -310 l 493 -310 l 493 872 l 367 872 l 367 -310 l 317 -310 l 317 399 q -8 656 -8 401 q 72 841 -8 772 q 297 909 153 909 l 633 909 l 633 872 l 543 872 z "},"ß":{"ha":753,"x_min":28,"x_max":700,"o":"m 122 35 l 122 543 q 130 700 122 639 q 178 817 138 760 q 277 897 217 874 q 399 920 337 920 q 592 855 524 920 q 661 714 661 790 q 615 597 661 654 q 471 524 568 541 l 471 521 q 700 272 700 481 q 634 66 700 144 q 476 -12 568 -12 q 387 17 423 -12 q 351 96 351 45 q 368 148 351 127 q 411 170 384 170 q 453 152 438 170 q 468 110 468 134 q 433 57 468 75 q 421 45 421 51 q 437 29 421 36 q 469 22 453 22 q 527 55 507 22 q 547 204 547 87 q 538 404 547 349 q 499 481 530 459 q 385 503 469 503 l 359 503 l 359 533 q 483 562 449 533 q 517 701 517 590 q 486 852 517 814 q 390 889 455 889 q 291 846 327 889 q 256 657 256 804 l 256 35 l 318 35 l 318 0 l 28 0 l 28 35 l 122 35 z "},"®":{"ha":1055,"x_min":47,"x_max":1008,"o":"m 47 460 q 189 799 47 659 q 528 940 330 940 q 867 799 726 940 q 1008 460 1008 659 q 867 120 1008 262 q 528 -21 726 -21 q 189 120 330 -21 q 47 460 47 262 m 966 460 q 838 770 966 642 q 528 899 709 899 q 218 770 347 899 q 89 460 89 642 q 218 150 89 278 q 528 21 347 21 q 838 150 709 21 q 966 460 966 278 m 261 755 l 524 755 q 670 713 615 755 q 725 604 725 671 q 574 453 725 490 l 717 252 q 799 192 760 190 l 799 168 l 673 168 l 473 443 l 422 443 l 422 283 q 436 206 422 220 q 503 192 450 192 l 503 168 l 254 168 l 254 192 q 314 210 303 192 q 325 285 325 228 l 325 640 q 315 714 325 697 q 261 732 306 731 l 261 755 m 422 715 l 422 472 l 443 472 q 568 504 522 472 q 615 596 615 535 q 577 688 615 650 q 479 725 540 725 q 422 715 450 725 z "},"©":{"ha":1055,"x_min":47,"x_max":1008,"o":"m 47 460 q 189 799 47 659 q 528 940 330 940 q 867 799 726 940 q 1008 460 1008 659 q 867 120 1008 262 q 528 -21 726 -21 q 189 120 330 -21 q 47 460 47 262 m 966 460 q 838 770 966 642 q 528 899 709 899 q 218 770 347 899 q 89 460 89 642 q 218 150 89 278 q 528 21 347 21 q 838 150 709 21 q 966 460 966 278 m 765 770 l 779 579 l 753 579 q 547 739 705 739 q 389 668 448 739 q 329 475 329 597 q 387 269 329 342 q 554 196 444 196 q 765 306 687 196 l 790 292 q 530 154 697 154 q 306 243 395 154 q 216 456 216 332 q 312 677 216 585 q 555 770 408 770 q 650 754 606 770 q 705 739 694 739 q 739 770 727 739 l 765 770 z "},"™":{"ha":1361,"x_min":25,"x_max":1343,"o":"m 40 909 l 533 909 l 549 774 l 525 774 q 494 842 521 814 q 393 869 467 869 l 343 869 l 343 476 q 356 405 343 421 q 415 386 368 389 l 415 363 l 161 363 l 161 386 q 215 401 201 390 q 229 475 229 412 l 229 869 l 178 869 q 86 849 115 869 q 49 774 58 828 l 25 774 l 40 909 m 789 909 l 975 522 l 1154 909 l 1343 909 l 1343 885 q 1281 868 1293 884 q 1268 793 1268 852 l 1268 476 q 1280 405 1268 420 q 1343 386 1292 389 l 1343 363 l 1074 363 l 1074 386 q 1140 405 1126 388 q 1154 475 1154 421 l 1154 808 l 1152 808 l 946 363 l 924 363 l 718 803 l 715 803 l 715 476 q 726 406 715 427 q 779 386 736 386 l 803 386 l 803 363 l 596 363 l 596 386 q 659 404 646 387 q 672 475 672 420 l 672 791 q 661 867 672 850 q 596 885 649 885 l 596 909 l 789 909 z "},"´":{"ha":463,"x_min":135,"x_max":425,"o":"m 153 635 l 135 652 l 271 815 q 328 877 309 861 q 370 893 347 893 q 408 877 391 893 q 425 842 425 860 q 403 793 425 813 q 322 737 381 773 l 153 635 z "},"¨":{"ha":463,"x_min":18,"x_max":444,"o":"m 309 764 q 329 812 309 792 q 376 832 349 832 q 425 812 405 832 q 444 764 444 793 q 425 715 444 735 q 376 696 405 696 q 328 715 348 696 q 309 764 309 735 m 18 764 q 38 812 18 792 q 86 832 58 832 q 134 812 115 832 q 154 764 154 793 q 134 715 154 735 q 86 696 115 696 q 38 715 58 696 q 18 764 18 735 z "},"≠":{"ha":762,"x_min":21,"x_max":750,"o":"m 750 189 l 329 189 l 204 -35 l 136 4 l 239 189 l 21 189 l 21 265 l 282 265 l 389 458 l 21 458 l 21 534 l 432 534 l 558 762 l 627 724 l 521 534 l 750 534 l 750 458 l 479 458 l 371 265 l 750 265 l 750 189 z "},"Æ":{"ha":1303,"x_min":-25,"x_max":1243,"o":"m 607 285 l 269 285 l 127 35 l 252 35 l 252 0 l -25 0 l -25 35 l 86 35 l 574 875 l 422 875 l 422 909 l 1200 909 l 1214 668 l 1183 668 q 1099 837 1159 799 q 916 875 1039 875 l 760 875 l 760 482 l 799 482 q 924 514 890 482 q 977 654 958 547 l 1008 654 l 1008 272 l 977 272 q 933 412 963 377 q 799 447 904 447 l 760 447 l 760 35 l 949 35 q 1058 48 1009 35 q 1153 122 1107 62 q 1214 306 1198 182 l 1243 306 l 1235 0 l 450 0 l 450 35 l 607 35 l 607 285 m 290 319 l 607 319 l 607 875 l 604 875 l 290 319 z "},"Ø":{"ha":983,"x_min":69,"x_max":914,"o":"m 208 106 l 98 -22 l 74 0 l 186 132 q 69 453 69 279 q 197 785 69 640 q 497 930 325 930 q 765 810 643 930 l 871 933 l 896 911 l 787 785 q 914 457 914 640 q 786 123 914 267 q 492 -21 659 -21 q 208 106 331 -21 m 269 231 l 705 739 q 494 896 669 896 q 361 862 421 896 q 280 741 302 828 q 258 449 258 654 q 269 231 258 322 m 713 696 l 277 186 q 350 57 293 100 q 489 14 407 14 q 625 52 565 14 q 705 186 685 91 q 725 505 725 281 q 713 696 725 604 z "},"∞":{"ha":990,"x_min":36,"x_max":954,"o":"m 443 453 q 551 604 491 568 q 694 640 610 640 q 879 561 804 640 q 954 357 954 482 q 879 151 954 231 q 717 72 803 72 q 601 115 652 72 q 489 267 550 157 q 269 109 410 109 q 102 179 168 109 q 36 358 36 250 q 96 536 36 465 q 244 607 157 607 q 345 578 298 607 q 443 453 392 550 m 509 315 q 600 179 552 222 q 720 136 648 136 q 860 198 805 136 q 916 357 916 260 q 859 519 916 452 q 724 587 802 587 q 657 573 686 587 q 607 531 629 558 q 564 452 585 503 l 509 315 m 416 378 l 424 400 q 243 546 359 546 q 121 494 168 546 q 74 359 74 442 q 119 219 74 276 q 229 161 164 161 q 331 205 285 161 q 416 378 376 250 z "},"±":{"ha":926,"x_min":96,"x_max":829,"o":"m 96 546 l 427 546 l 427 875 l 498 875 l 498 546 l 829 546 l 829 473 l 498 473 l 498 144 l 427 144 l 427 473 l 96 473 l 96 546 m 96 74 l 829 74 l 829 0 l 96 0 l 96 74 z "},"≤":{"ha":762,"x_min":40,"x_max":730,"o":"m 730 163 l 40 482 l 40 568 l 730 888 l 730 802 l 129 525 l 730 249 l 730 163 m 730 0 l 40 0 l 40 76 l 730 76 l 730 0 z "},"≥":{"ha":762,"x_min":40,"x_max":730,"o":"m 730 482 l 40 163 l 40 249 l 642 525 l 40 802 l 40 888 l 730 568 l 730 482 m 730 0 l 40 0 l 40 76 l 730 76 l 730 0 z "},"¥":{"ha":1055,"x_min":41,"x_max":1032,"o":"m 612 475 l 875 875 l 710 875 l 710 909 l 1032 909 l 1032 875 l 914 875 l 629 440 l 629 435 l 935 435 l 935 400 l 629 400 l 629 245 l 935 245 l 935 211 l 629 211 l 629 35 l 781 35 l 781 0 l 314 0 l 314 35 l 468 35 l 468 211 l 163 211 l 163 245 l 468 245 l 468 400 l 163 400 l 163 435 l 457 435 l 163 875 l 41 875 l 41 909 l 496 909 l 496 875 l 346 875 l 612 475 z "},"µ":{"ha":694,"x_min":21,"x_max":689,"o":"m 64 533 l 195 533 l 195 261 q 220 99 195 134 q 289 64 245 64 q 431 155 364 64 l 431 533 l 559 533 l 559 178 q 571 73 559 92 q 606 54 583 54 q 635 66 622 54 q 657 138 648 77 l 689 138 q 554 -20 678 -20 q 433 100 438 -20 l 431 100 q 239 -20 360 -20 q 134 39 170 -20 l 131 39 q 144 -120 131 -51 q 158 -225 158 -189 q 139 -276 158 -252 q 89 -300 119 -300 q 38 -277 56 -300 q 21 -227 21 -255 q 42 -114 21 -206 q 64 78 64 -22 l 64 533 z "},"∂":{"ha":686,"x_min":45,"x_max":675,"o":"m 200 760 l 170 760 q 427 965 258 965 q 605 879 536 965 q 675 624 675 793 q 563 180 675 381 q 273 -21 452 -21 q 106 41 168 -21 q 45 207 45 102 q 158 492 45 369 q 418 615 271 615 q 629 486 568 615 l 632 486 q 639 612 639 584 q 576 800 639 731 q 404 868 513 868 q 200 760 273 868 m 618 427 q 425 579 563 579 q 231 450 304 579 q 158 179 158 321 q 195 62 158 106 q 292 18 231 18 q 481 129 384 18 q 618 427 578 239 z "},"∑":{"ha":990,"x_min":20,"x_max":965,"o":"m 965 161 q 928 -1 943 77 q 905 -150 913 -79 q 836 -139 863 -142 q 799 -135 809 -135 l 100 -135 q 60 -137 86 -135 q 20 -139 33 -139 l 504 414 l 22 1044 q 106 1037 70 1040 q 167 1035 142 1035 l 857 1035 l 865 814 l 838 814 q 802 909 817 883 q 747 954 787 936 q 696 968 726 963 q 625 972 666 972 l 260 972 l 639 475 l 231 4 l 746 4 q 866 39 832 4 q 933 161 901 75 l 965 161 z "},"∏":{"ha":1143,"x_min":35,"x_max":1116,"o":"m 1116 -140 l 689 -140 l 689 -109 q 797 -81 770 -109 q 824 4 824 -53 l 824 966 l 326 966 l 326 4 q 353 -81 326 -53 q 461 -109 380 -109 l 461 -140 l 35 -140 l 35 -109 q 143 -81 117 -109 q 170 4 170 -53 l 170 873 q 137 977 170 942 q 37 1011 104 1011 l 37 1043 l 1113 1043 l 1113 1011 q 1014 977 1046 1011 q 981 873 981 942 l 981 4 q 1007 -81 981 -53 q 1116 -109 1033 -109 l 1116 -140 z "},"π":{"ha":762,"x_min":14,"x_max":736,"o":"m 736 210 q 685 41 732 104 q 571 -22 637 -22 q 477 40 517 -22 q 437 231 437 102 q 438 285 437 259 q 441 334 439 311 l 465 557 l 309 557 q 242 53 268 134 q 153 -27 216 -27 q 103 -6 127 -27 q 79 50 79 15 q 129 137 79 81 q 183 239 178 193 l 224 557 l 158 557 q 105 544 131 557 q 66 513 79 530 l 37 469 l 14 469 q 95 624 47 572 q 207 676 144 676 l 725 676 l 725 557 l 550 557 q 537 394 542 475 q 533 231 533 313 q 559 140 533 175 q 623 106 585 106 q 673 125 647 106 q 703 176 699 144 q 706 199 705 191 q 707 210 707 208 l 736 210 z "},"∫":{"ha":380,"x_min":7,"x_max":408,"o":"m 408 1194 q 388 1150 408 1167 q 337 1133 368 1133 q 296 1150 312 1133 q 267 1167 281 1167 q 248 1157 254 1167 q 241 1128 241 1147 q 255 954 241 1105 q 268 581 268 804 q 248 99 268 238 q 194 -92 227 -39 q 148 -134 176 -120 q 90 -149 120 -149 q 32 -125 57 -149 q 7 -67 7 -101 q 24 -23 7 -41 q 68 -5 41 -5 q 112 -27 91 -5 q 142 -50 134 -50 q 169 -19 159 -50 q 179 85 179 11 q 175 218 179 110 q 171 600 171 327 q 182 1033 171 926 q 210 1179 194 1139 q 257 1249 230 1226 q 314 1272 284 1272 q 380 1250 353 1272 q 408 1194 408 1228 z "},"ª":{"ha":449,"x_min":50,"x_max":418,"o":"m 271 783 l 271 825 q 262 893 271 877 q 211 909 253 909 q 142 882 142 909 q 147 867 142 876 q 153 846 153 857 q 114 812 153 812 q 74 850 74 812 q 115 904 74 881 q 228 926 155 926 q 335 903 314 926 q 357 829 357 879 l 357 679 q 360 641 357 651 q 376 631 363 631 q 407 650 395 631 l 418 650 q 343 591 406 591 q 271 656 283 591 q 150 591 218 591 q 77 614 104 591 q 50 671 50 637 q 271 783 50 774 m 271 721 l 271 764 q 175 748 213 762 q 138 688 138 734 q 189 628 138 628 q 244 651 218 628 q 271 721 271 673 z "},"º":{"ha":435,"x_min":36,"x_max":400,"o":"m 36 761 q 90 882 36 834 q 212 930 144 930 q 349 883 297 930 q 400 765 400 835 q 346 642 400 693 q 216 591 292 591 q 90 641 143 591 q 36 761 36 690 m 300 726 q 289 887 300 859 q 218 914 279 914 q 148 888 159 914 q 136 724 136 863 q 150 635 136 663 q 216 608 163 608 q 277 629 254 608 q 300 726 300 649 z "},"Ω":{"ha":1067,"x_min":47,"x_max":1021,"o":"m 1021 0 l 612 0 l 634 211 q 787 347 743 251 q 831 559 831 442 q 759 812 831 713 q 534 911 686 911 q 310 812 382 911 q 237 559 237 713 q 281 347 237 442 q 435 211 326 251 l 457 0 l 47 0 l 47 225 l 68 225 q 95 160 79 180 q 160 140 111 140 l 379 140 l 376 179 q 145 329 215 223 q 75 554 75 435 q 205 843 75 730 q 534 956 336 956 q 863 843 733 956 q 994 554 994 730 q 924 329 994 435 q 692 179 854 223 l 690 140 l 909 140 q 974 160 958 140 q 1001 225 990 180 l 1021 225 l 1021 0 z "},"æ":{"ha":897,"x_min":45,"x_max":859,"o":"m 504 302 l 504 220 q 539 56 504 92 q 635 20 574 20 q 752 63 699 20 q 828 186 806 106 l 859 186 q 623 -17 802 -17 q 393 113 479 -17 q 192 -17 313 -17 q 85 23 126 -17 q 45 119 45 64 q 130 253 45 205 q 372 304 216 301 l 372 378 q 358 486 372 452 q 283 519 343 519 q 209 505 240 519 q 178 473 178 491 q 192 453 178 471 q 207 414 207 436 q 188 371 207 388 q 142 354 170 354 q 81 416 81 354 q 144 512 81 475 q 302 550 208 550 q 478 505 404 550 q 618 550 551 550 q 782 486 713 550 q 859 302 850 421 l 504 302 m 504 334 l 714 334 q 686 494 716 469 q 612 519 656 519 q 545 501 573 519 q 512 457 517 483 q 504 334 507 431 m 372 151 l 372 273 q 217 238 259 269 q 175 142 175 206 q 197 71 175 97 q 252 45 220 45 q 340 92 307 45 q 372 151 372 138 z "},"ø":{"ha":681,"x_min":61,"x_max":621,"o":"m 170 43 l 96 -41 l 78 -24 l 150 61 q 61 268 61 146 q 143 468 61 386 q 342 550 224 550 q 521 492 441 550 l 599 582 l 618 566 l 541 475 q 621 272 621 395 q 537 67 621 151 q 340 -17 454 -17 q 170 43 246 -17 m 218 140 l 467 427 q 339 519 461 519 q 258 500 291 519 q 219 416 225 481 q 213 255 213 350 q 218 140 213 184 m 468 392 l 222 106 q 340 14 234 14 q 435 49 408 14 q 465 123 463 84 q 468 392 468 161 z "},"¿":{"ha":608,"x_min":50,"x_max":492,"o":"m 403 464 q 378 404 403 429 q 318 379 353 379 q 257 404 283 379 q 232 464 232 429 q 257 525 232 500 q 318 550 283 550 q 378 525 353 550 q 403 464 403 499 m 318 272 l 347 272 q 358 179 358 213 q 266 -41 358 31 q 148 -144 174 -113 q 122 -221 122 -176 q 169 -314 122 -275 q 286 -354 216 -354 q 395 -321 352 -354 q 437 -262 437 -288 q 411 -251 437 -253 q 367 -230 385 -250 q 349 -184 349 -210 q 369 -139 349 -158 q 416 -119 389 -119 q 470 -142 449 -119 q 492 -208 492 -164 q 432 -334 492 -281 q 286 -386 372 -386 q 114 -312 178 -386 q 50 -146 50 -239 q 84 -20 50 -75 q 229 111 118 35 q 321 237 321 175 q 318 272 321 255 z "},"¡":{"ha":376,"x_min":103,"x_max":273,"o":"m 273 464 q 248 404 273 429 q 187 379 222 379 q 128 404 153 379 q 103 464 103 429 q 128 525 103 500 q 187 550 153 550 q 248 525 222 550 q 273 464 273 500 m 171 258 l 204 258 q 214 17 205 94 q 243 -158 222 -60 q 264 -300 264 -257 q 241 -360 264 -334 q 184 -386 218 -386 q 129 -360 151 -386 q 107 -294 107 -334 q 131 -134 107 -240 q 162 42 155 -28 q 171 258 170 112 z "},"¬":{"ha":926,"x_min":97,"x_max":829,"o":"m 97 650 l 829 650 l 829 245 l 757 245 l 757 578 l 97 578 l 97 650 z "},"√":{"ha":762,"x_min":14,"x_max":715,"o":"m 715 1267 l 507 -53 l 170 644 l 36 579 l 14 625 l 216 725 l 490 165 l 667 1274 l 715 1267 z "},"ƒ":{"ha":681,"x_min":-69,"x_max":749,"o":"m 233 57 l 261 269 l 296 464 q 299 482 296 467 q 302 498 302 497 l 178 498 l 184 533 l 311 533 q 437 829 351 732 q 616 926 523 926 q 710 896 671 926 q 749 822 749 865 q 731 775 749 795 q 689 755 713 755 q 646 773 664 755 q 628 815 628 791 q 647 859 628 839 q 667 880 667 878 q 627 896 667 896 q 496 796 535 896 q 439 533 457 696 l 538 533 l 530 498 l 435 498 l 386 204 q 336 -30 361 60 q 276 -189 311 -120 q 206 -294 241 -258 q 128 -347 170 -330 q 50 -364 85 -364 q -34 -337 1 -364 q -69 -271 -69 -309 q -54 -226 -69 -245 q -7 -207 -38 -207 q 50 -271 50 -207 q 42 -299 50 -287 q 35 -319 35 -311 q 54 -332 35 -332 q 152 -278 108 -332 q 233 57 197 -224 z "},"≈":{"ha":762,"x_min":35,"x_max":728,"o":"m 693 593 l 728 593 q 663 431 713 488 q 536 375 612 375 q 330 454 471 375 q 187 507 236 507 q 66 380 86 507 l 35 380 q 98 542 48 485 q 221 599 148 599 q 294 586 253 599 q 446 513 334 572 q 576 471 526 471 q 693 593 674 471 m 693 330 l 728 330 q 663 169 713 225 q 536 113 612 113 q 354 178 471 113 q 187 244 237 244 q 66 118 86 244 l 35 118 q 98 278 48 222 q 221 335 148 335 q 297 320 253 335 q 446 250 341 306 q 576 208 526 208 q 693 330 674 208 z "},"∆":{"ha":850,"x_min":8,"x_max":844,"o":"m 453 956 l 844 0 l 8 0 l 453 956 m 403 718 l 100 68 l 672 68 l 403 718 z "},"«":{"ha":681,"x_min":33,"x_max":647,"o":"m 517 22 l 315 292 l 517 558 l 647 558 l 446 292 l 647 22 l 517 22 m 236 22 l 33 292 l 236 558 l 364 558 l 164 292 l 364 22 l 236 22 z "},"»":{"ha":681,"x_min":33,"x_max":647,"o":"m 164 558 l 366 290 l 164 22 l 33 22 l 235 290 l 33 558 l 164 558 m 444 558 l 647 290 l 444 22 l 315 22 l 517 290 l 315 558 l 444 558 z "},"…":{"ha":1389,"x_min":144,"x_max":1243,"o":"m 608 65 q 633 125 608 100 q 694 150 659 150 q 754 125 729 150 q 779 65 779 100 q 754 4 779 30 q 694 -21 730 -21 q 633 4 659 -21 q 608 65 608 30 m 144 65 q 170 125 144 100 q 231 150 195 150 q 290 125 265 150 q 315 65 315 100 q 291 4 315 30 q 231 -21 266 -21 q 170 4 195 -21 q 144 65 144 30 m 1072 65 q 1097 125 1072 100 q 1157 150 1122 150 q 1218 125 1193 150 q 1243 65 1243 100 q 1218 4 1243 30 q 1157 -21 1193 -21 q 1097 4 1122 -21 q 1072 65 1072 30 z "}," ":{"ha":340,"x_min":0,"x_max":0,"o":""},"À":{"ha":983,"x_min":39,"x_max":957,"o":"m 582 283 l 293 283 l 200 35 l 368 35 l 368 0 l 39 0 l 39 35 l 164 35 l 496 930 l 517 930 l 835 35 l 957 35 l 957 0 l 524 0 l 524 35 l 671 35 l 582 283 m 306 318 l 570 318 l 441 682 l 439 682 l 306 318 m 571 983 l 401 1086 q 313 1150 328 1131 q 298 1189 298 1169 q 315 1226 298 1210 q 353 1242 332 1242 q 395 1226 377 1242 q 453 1164 414 1211 l 589 1000 l 571 983 z "},"Ã":{"ha":983,"x_min":39,"x_max":957,"o":"m 582 283 l 293 283 l 200 35 l 368 35 l 368 0 l 39 0 l 39 35 l 164 35 l 496 930 l 517 930 l 835 35 l 957 35 l 957 0 l 524 0 l 524 35 l 671 35 l 582 283 m 306 318 l 570 318 l 441 682 l 439 682 l 306 318 m 679 1186 l 705 1186 q 665 1074 704 1112 q 576 1035 626 1035 q 463 1065 532 1035 q 370 1095 393 1095 q 306 1035 318 1095 l 279 1035 q 318 1149 279 1112 q 410 1186 356 1186 q 523 1157 456 1186 q 616 1128 589 1128 q 679 1186 662 1128 z "},"Õ":{"ha":983,"x_min":69,"x_max":914,"o":"m 492 -21 q 192 127 315 -21 q 69 443 69 275 q 198 788 69 645 q 498 930 328 930 q 787 785 659 930 q 914 456 914 640 q 786 122 914 266 q 492 -21 659 -21 m 494 896 q 360 862 420 896 q 280 743 301 827 q 258 447 258 658 q 271 214 258 301 q 333 71 283 127 q 489 14 382 14 q 620 48 554 14 q 705 184 685 83 q 725 496 725 286 q 700 759 725 686 q 621 864 675 831 q 494 896 566 896 m 679 1186 l 705 1186 q 665 1074 704 1112 q 576 1035 626 1035 q 463 1065 532 1035 q 370 1095 393 1095 q 306 1035 318 1095 l 279 1035 q 318 1149 279 1112 q 410 1186 356 1186 q 523 1157 456 1186 q 616 1128 589 1128 q 679 1186 662 1128 z "},"Œ":{"ha":1360,"x_min":68,"x_max":1292,"o":"m 1292 302 l 1282 0 l 790 0 q 605 -11 687 0 q 493 -21 522 -21 q 186 118 304 -21 q 68 446 68 256 q 190 791 68 652 q 492 930 311 930 q 603 920 553 930 q 701 909 654 909 l 1250 909 l 1263 665 l 1231 665 q 1181 805 1219 759 q 1098 863 1143 851 q 991 875 1052 875 l 846 875 l 846 485 l 888 485 q 1006 525 974 485 q 1047 653 1038 564 l 1082 653 l 1082 271 l 1047 271 q 1008 407 1042 364 q 888 450 975 450 l 846 450 l 846 35 l 975 35 q 1105 49 1050 35 q 1204 122 1159 64 q 1263 302 1249 181 l 1292 302 m 693 35 l 693 875 q 592 885 649 875 q 497 895 534 895 q 349 854 413 895 q 271 722 285 814 q 257 408 257 629 q 275 166 257 250 q 363 48 293 83 q 504 14 433 14 q 587 23 530 14 q 693 35 644 32 z "},"œ":{"ha":1055,"x_min":62,"x_max":993,"o":"m 993 306 l 628 306 q 634 116 628 157 q 676 44 641 75 q 764 14 711 14 q 961 186 921 14 l 993 186 q 754 -17 951 -17 q 557 60 631 -17 q 357 -17 473 -17 q 142 66 222 -17 q 62 267 62 150 q 148 467 62 385 q 354 550 234 550 q 562 472 474 550 q 745 550 637 550 q 908 492 836 550 q 993 306 981 434 m 628 336 l 846 336 q 824 487 852 454 q 730 519 796 519 q 653 488 685 519 q 628 336 621 457 m 358 14 q 447 39 414 14 q 488 101 480 65 q 496 281 496 137 q 490 414 496 373 q 453 488 485 456 q 358 519 421 519 q 261 488 294 519 q 222 404 229 456 q 215 193 215 351 q 253 52 215 90 q 358 14 291 14 z "},"–":{"ha":694,"x_min":-8,"x_max":703,"o":"m -8 317 l 703 317 l 703 258 l -8 258 l -8 317 z "},"—":{"ha":1389,"x_min":-8,"x_max":1397,"o":"m -8 317 l 1397 317 l 1397 258 l -8 258 l -8 317 z "},"“":{"ha":681,"x_min":68,"x_max":612,"o":"m 528 920 l 549 897 q 427 703 427 790 q 453 643 427 643 q 471 665 464 643 q 541 718 488 718 q 592 696 571 718 q 612 640 612 674 q 584 576 612 602 q 514 551 555 551 q 425 590 462 551 q 387 689 387 629 q 528 920 387 801 m 208 920 l 229 897 q 107 703 107 790 q 134 643 107 643 q 152 665 144 643 q 221 718 169 718 q 272 696 252 718 q 293 640 293 674 q 264 576 293 602 q 195 551 236 551 q 105 590 142 551 q 68 689 68 629 q 208 920 68 801 z "},"”":{"ha":681,"x_min":68,"x_max":612,"o":"m 153 551 l 132 574 q 254 768 254 680 q 228 828 254 828 q 209 806 216 828 q 140 753 192 753 q 89 775 110 753 q 68 831 68 797 q 97 895 68 869 q 167 920 125 920 q 256 881 219 920 q 293 782 293 842 q 153 551 293 670 m 472 551 l 452 574 q 574 768 574 680 q 547 828 574 828 q 528 806 536 828 q 460 753 511 753 q 408 775 429 753 q 387 831 387 797 q 416 895 387 869 q 486 920 445 920 q 575 881 538 920 q 612 782 612 842 q 472 551 612 670 z "},"‘":{"ha":376,"x_min":71,"x_max":296,"o":"m 211 917 l 232 895 q 110 700 110 787 q 136 640 110 640 q 155 663 147 640 q 224 715 172 715 q 275 693 254 715 q 296 637 296 671 q 267 574 296 599 q 197 549 239 549 q 108 588 145 549 q 71 686 71 627 q 211 917 71 798 z "},"’":{"ha":376,"x_min":81,"x_max":306,"o":"m 165 551 l 144 574 q 267 768 267 680 q 240 828 267 828 q 222 806 229 828 q 153 753 204 753 q 101 775 122 753 q 81 831 81 797 q 109 895 81 869 q 179 920 138 920 q 269 881 231 920 q 306 782 306 842 q 165 551 306 670 z "},"÷":{"ha":928,"x_min":97,"x_max":829,"o":"m 414 722 q 428 758 414 743 q 463 772 442 772 q 498 757 483 772 q 513 722 513 742 q 498 688 513 703 q 463 673 483 673 q 428 688 443 673 q 414 722 414 703 m 97 482 l 829 482 l 829 411 l 97 411 l 97 482 m 414 170 q 428 205 414 190 q 463 220 442 220 q 498 204 483 220 q 513 170 513 189 q 498 135 513 150 q 463 121 483 121 q 428 135 443 121 q 414 170 414 150 z "},"◊":{"ha":686,"x_min":31,"x_max":652,"o":"m 652 517 l 383 0 l 300 0 l 31 517 l 300 1035 l 383 1035 l 652 517 m 569 517 l 342 960 l 115 517 l 342 75 l 569 517 z "},"ÿ":{"ha":753,"x_min":29,"x_max":730,"o":"m 253 498 l 443 127 l 608 498 l 490 498 l 490 533 l 730 533 l 730 498 l 640 498 l 367 -121 q 267 -307 308 -254 q 167 -359 226 -359 q 110 -336 130 -359 q 90 -283 90 -313 q 107 -239 90 -256 q 149 -222 125 -222 q 200 -253 182 -222 q 231 -283 218 -283 q 270 -250 249 -283 q 334 -121 291 -217 l 378 -21 l 110 498 l 29 498 l 29 533 l 355 533 l 355 498 l 253 498 m 454 764 q 474 812 454 792 q 522 832 494 832 q 570 812 551 832 q 590 764 590 793 q 570 715 590 735 q 522 696 551 696 q 474 715 494 696 q 454 764 454 735 m 164 764 q 184 812 164 792 q 232 832 204 832 q 280 812 260 832 q 300 764 300 793 q 280 715 300 735 q 232 696 260 696 q 184 715 203 696 q 164 764 164 735 z "},"Ÿ":{"ha":1055,"x_min":41,"x_max":1032,"o":"m 41 909 l 496 909 l 496 875 l 346 875 l 612 473 l 875 875 l 710 875 l 710 909 l 1032 909 l 1032 875 l 914 875 l 629 440 l 629 35 l 781 35 l 781 0 l 314 0 l 314 35 l 468 35 l 468 416 l 163 875 l 41 875 l 41 909 m 661 1112 q 681 1161 661 1141 q 729 1181 701 1181 q 777 1161 758 1181 q 797 1112 797 1141 q 777 1064 797 1084 q 729 1044 758 1044 q 681 1064 701 1044 q 661 1112 661 1084 m 371 1112 q 391 1161 371 1141 q 439 1181 411 1181 q 487 1161 467 1181 q 507 1112 507 1141 q 487 1064 507 1084 q 439 1044 467 1044 q 391 1064 410 1044 q 371 1112 371 1084 z "},"⁄":{"ha":449,"x_min":-140,"x_max":589,"o":"m 589 893 l -79 -41 l -140 -41 l 526 893 l 589 893 z "},"€":{"ha":681,"x_min":45,"x_max":628,"o":"m 268 380 l 268 319 q 313 100 268 186 q 436 14 359 14 q 522 38 492 14 q 553 87 553 63 q 531 117 553 98 q 493 183 493 151 q 512 226 493 210 q 558 243 530 243 q 608 219 589 243 q 628 160 628 195 q 575 39 628 98 q 424 -20 522 -20 q 219 89 302 -20 q 125 380 137 197 l 45 380 l 65 411 l 123 411 l 123 427 q 125 485 123 467 l 45 485 l 65 515 l 127 515 q 230 792 149 692 q 424 893 312 893 q 561 848 511 893 q 611 745 611 802 q 591 692 611 715 q 542 668 571 668 q 500 684 517 668 q 484 726 484 701 q 519 783 484 760 q 538 803 538 794 q 513 841 538 822 q 437 860 488 860 q 268 528 268 860 l 268 515 l 479 515 l 458 485 l 268 485 l 268 411 l 479 411 l 458 380 l 268 380 z "},"‹":{"ha":406,"x_min":36,"x_max":370,"o":"m 239 22 l 36 292 l 239 558 l 370 558 l 167 292 l 370 22 l 239 22 z "},"›":{"ha":406,"x_min":36,"x_max":370,"o":"m 167 558 l 370 289 l 167 22 l 36 22 l 239 289 l 36 558 l 167 558 z "},"ﬁ":{"ha":753,"x_min":36,"x_max":715,"o":"m 496 498 l 265 498 l 265 35 l 355 35 l 355 0 l 47 0 l 47 35 l 132 35 l 132 498 l 36 498 l 36 533 l 132 533 q 154 718 132 653 q 244 851 175 782 q 427 920 313 920 q 553 882 507 920 q 600 802 600 844 q 583 756 600 777 q 536 736 566 736 q 488 757 505 736 q 471 800 471 778 q 524 864 471 844 q 431 890 503 890 q 317 852 353 890 q 273 759 281 814 q 265 607 265 705 l 265 533 l 469 533 q 629 542 575 533 l 629 35 l 715 35 l 715 0 l 406 0 l 406 35 l 496 35 l 496 498 z "},"ﬂ":{"ha":753,"x_min":36,"x_max":715,"o":"m 496 498 l 265 498 l 265 35 l 349 35 l 349 0 l 47 0 l 47 35 l 132 35 l 132 498 l 36 498 l 36 533 l 132 533 q 223 827 141 735 q 419 920 305 920 q 483 912 454 920 q 514 904 512 904 q 629 926 568 904 l 629 35 l 715 35 l 715 0 l 407 0 l 407 35 l 496 35 l 496 498 m 265 533 l 496 533 l 496 754 q 446 817 446 772 q 484 878 446 845 q 422 889 454 889 q 328 864 361 889 q 280 800 294 839 q 265 602 265 762 l 265 533 z "},"‡":{"ha":681,"x_min":58,"x_max":623,"o":"m 271 501 q 329 621 329 581 q 213 597 277 621 q 132 572 149 572 q 82 590 105 572 q 58 635 58 607 q 81 677 58 661 q 132 693 104 693 q 227 671 163 693 q 329 650 290 648 q 303 755 325 699 q 281 848 281 811 q 299 908 281 886 q 342 929 317 929 q 387 906 369 929 q 404 856 404 883 q 382 760 404 820 q 357 650 359 700 q 476 671 413 650 q 553 693 538 693 q 603 676 583 693 q 623 635 623 659 q 600 590 623 608 q 553 572 578 572 q 475 596 530 572 q 357 621 420 620 q 410 501 359 550 q 354 293 354 405 q 412 82 354 191 q 359 -36 365 26 q 466 -14 404 -35 q 549 8 528 8 q 602 -10 581 8 q 623 -52 623 -28 q 601 -95 623 -77 q 550 -113 580 -113 q 509 -106 528 -113 q 359 -68 437 -70 q 383 -176 359 -109 q 407 -269 407 -244 q 387 -326 407 -304 q 342 -347 368 -347 q 296 -322 313 -347 q 279 -267 279 -297 q 305 -168 279 -234 q 332 -68 330 -102 q 217 -91 273 -69 q 132 -113 160 -113 q 79 -94 99 -113 q 58 -50 58 -76 q 77 -10 58 -28 q 131 8 96 8 q 209 -13 149 8 q 332 -36 269 -34 q 273 82 327 18 q 326 293 326 180 q 271 501 326 389 z "},"·":{"ha":376,"x_min":103,"x_max":273,"o":"m 103 439 q 128 498 103 473 q 187 524 153 524 q 248 498 223 524 q 273 439 273 473 q 248 378 273 404 q 187 353 223 353 q 128 378 153 353 q 103 439 103 404 z "},"‚":{"ha":376,"x_min":81,"x_max":306,"o":"m 165 -221 l 144 -199 q 267 -4 267 -92 q 240 56 267 56 q 222 33 229 56 q 153 -20 204 -20 q 101 2 122 -20 q 81 58 81 24 q 109 122 81 97 q 179 147 138 147 q 269 108 231 147 q 306 9 306 69 q 165 -221 306 -102 z "},"„":{"ha":681,"x_min":68,"x_max":612,"o":"m 153 -221 l 132 -199 q 254 -4 254 -92 q 228 56 254 56 q 209 33 216 56 q 140 -20 192 -20 q 89 2 110 -20 q 68 58 68 24 q 97 122 68 97 q 167 147 125 147 q 256 108 219 147 q 293 9 293 69 q 153 -221 293 -102 m 472 -221 l 452 -199 q 574 -4 574 -92 q 547 56 574 56 q 528 33 536 56 q 460 -20 511 -20 q 408 2 429 -20 q 387 58 387 24 q 416 122 387 97 q 486 147 445 147 q 575 108 538 147 q 612 9 612 69 q 472 -221 612 -102 z "},"‰":{"ha":1346,"x_min":41,"x_max":1304,"o":"m 821 928 l 155 -43 l 94 -43 l 760 928 l 821 928 m 221 453 q 95 520 149 453 q 41 684 41 587 q 97 860 41 791 q 225 928 153 928 q 351 859 297 928 q 404 692 404 790 q 352 523 404 593 q 221 453 300 453 m 225 905 q 172 863 186 905 q 157 699 157 821 q 171 519 157 565 q 224 473 184 473 q 274 512 258 473 q 289 750 289 550 q 225 905 289 905 m 688 -43 q 562 24 616 -43 q 509 187 509 91 q 564 364 509 296 q 692 432 619 432 q 818 363 764 432 q 871 196 871 294 q 819 27 871 98 q 688 -43 766 -43 m 692 410 q 638 367 653 410 q 624 203 624 325 q 637 23 624 68 q 690 -22 651 -22 q 740 16 725 -22 q 755 254 755 54 q 692 410 755 410 m 1121 -43 q 996 24 1049 -43 q 942 187 942 91 q 997 364 942 296 q 1125 432 1053 432 q 1251 363 1198 432 q 1304 196 1304 294 q 1252 27 1304 98 q 1121 -43 1200 -43 m 1125 410 q 1072 367 1086 410 q 1057 203 1057 325 q 1071 23 1057 68 q 1124 -22 1084 -22 q 1174 16 1158 -22 q 1189 254 1189 54 q 1125 410 1189 410 z "},"Â":{"ha":983,"x_min":39,"x_max":957,"o":"m 582 283 l 293 283 l 200 35 l 368 35 l 368 0 l 39 0 l 39 35 l 164 35 l 496 930 l 517 930 l 835 35 l 957 35 l 957 0 l 524 0 l 524 35 l 671 35 l 582 283 m 306 318 l 570 318 l 441 682 l 439 682 l 306 318 m 309 996 l 467 1225 l 518 1225 l 676 996 l 639 996 l 493 1124 l 346 996 l 309 996 z "},"Ê":{"ha":970,"x_min":75,"x_max":890,"o":"m 380 875 l 380 485 l 463 485 q 536 493 506 485 q 590 539 566 502 q 618 656 614 576 l 653 656 l 653 271 l 618 271 q 575 415 612 380 q 463 450 538 450 l 380 450 l 380 35 l 566 35 q 784 101 723 35 q 856 304 844 167 l 890 304 l 882 0 l 75 0 l 75 35 l 220 35 l 220 875 l 75 875 l 75 909 l 848 909 l 864 667 l 829 667 q 757 826 812 777 q 574 875 702 875 l 380 875 m 343 996 l 501 1225 l 553 1225 l 711 996 l 673 996 l 528 1124 l 380 996 l 343 996 z "},"Á":{"ha":983,"x_min":39,"x_max":957,"o":"m 582 283 l 293 283 l 200 35 l 368 35 l 368 0 l 39 0 l 39 35 l 164 35 l 496 930 l 517 930 l 835 35 l 957 35 l 957 0 l 524 0 l 524 35 l 671 35 l 582 283 m 306 318 l 570 318 l 441 682 l 439 682 l 306 318 m 414 983 l 396 1000 l 532 1164 q 589 1225 570 1209 q 631 1242 608 1242 q 669 1225 652 1242 q 686 1190 686 1208 q 664 1142 686 1162 q 583 1086 642 1122 l 414 983 z "},"Ë":{"ha":970,"x_min":75,"x_max":890,"o":"m 380 875 l 380 485 l 463 485 q 536 493 506 485 q 590 539 566 502 q 618 656 614 576 l 653 656 l 653 271 l 618 271 q 575 415 612 380 q 463 450 538 450 l 380 450 l 380 35 l 566 35 q 784 101 723 35 q 856 304 844 167 l 890 304 l 882 0 l 75 0 l 75 35 l 220 35 l 220 875 l 75 875 l 75 909 l 848 909 l 864 667 l 829 667 q 757 826 812 777 q 574 875 702 875 l 380 875 m 597 1112 q 617 1161 597 1141 q 665 1181 637 1181 q 713 1161 694 1181 q 733 1112 733 1141 q 713 1064 733 1084 q 665 1044 694 1044 q 617 1064 637 1044 q 597 1112 597 1084 m 307 1112 q 327 1161 307 1141 q 375 1181 347 1181 q 423 1161 404 1181 q 443 1112 443 1141 q 423 1064 443 1084 q 375 1044 404 1044 q 327 1064 347 1044 q 307 1112 307 1084 z "},"È":{"ha":970,"x_min":75,"x_max":890,"o":"m 380 875 l 380 485 l 463 485 q 536 493 506 485 q 590 539 566 502 q 618 656 614 576 l 653 656 l 653 271 l 618 271 q 575 415 612 380 q 463 450 538 450 l 380 450 l 380 35 l 566 35 q 784 101 723 35 q 856 304 844 167 l 890 304 l 882 0 l 75 0 l 75 35 l 220 35 l 220 875 l 75 875 l 75 909 l 848 909 l 864 667 l 829 667 q 757 826 812 777 q 574 875 702 875 l 380 875 m 620 983 l 450 1086 q 362 1150 376 1131 q 347 1189 347 1169 q 364 1226 347 1210 q 401 1242 381 1242 q 444 1226 426 1242 q 502 1164 463 1211 l 637 1000 l 620 983 z "},"Í":{"ha":593,"x_min":66,"x_max":526,"o":"m 215 35 l 215 875 l 66 875 l 66 909 l 526 909 l 526 875 l 376 875 l 376 35 l 526 35 l 526 0 l 66 0 l 66 35 l 215 35 m 218 983 l 200 1000 l 336 1164 q 393 1225 374 1209 q 435 1242 412 1242 q 473 1225 456 1242 q 490 1190 490 1208 q 468 1142 490 1162 q 387 1086 446 1122 l 218 983 z "},"Î":{"ha":593,"x_min":66,"x_max":526,"o":"m 215 35 l 215 875 l 66 875 l 66 909 l 526 909 l 526 875 l 376 875 l 376 35 l 526 35 l 526 0 l 66 0 l 66 35 l 215 35 m 113 996 l 271 1225 l 323 1225 l 481 996 l 444 996 l 298 1124 l 151 996 l 113 996 z "},"Ï":{"ha":593,"x_min":66,"x_max":526,"o":"m 215 35 l 215 875 l 66 875 l 66 909 l 526 909 l 526 875 l 376 875 l 376 35 l 526 35 l 526 0 l 66 0 l 66 35 l 215 35 m 374 1112 q 394 1161 374 1141 q 442 1181 414 1181 q 490 1161 471 1181 q 510 1112 510 1141 q 490 1064 510 1084 q 442 1044 471 1044 q 394 1064 414 1044 q 374 1112 374 1084 m 84 1112 q 104 1161 84 1141 q 152 1181 124 1181 q 200 1161 180 1181 q 220 1112 220 1141 q 200 1064 220 1084 q 152 1044 180 1044 q 104 1064 123 1044 q 84 1112 84 1084 z "},"Ì":{"ha":593,"x_min":66,"x_max":526,"o":"m 215 35 l 215 875 l 66 875 l 66 909 l 526 909 l 526 875 l 376 875 l 376 35 l 526 35 l 526 0 l 66 0 l 66 35 l 215 35 m 376 983 l 206 1086 q 118 1150 132 1131 q 103 1189 103 1169 q 120 1226 103 1210 q 157 1242 137 1242 q 200 1226 182 1242 q 258 1164 218 1211 l 393 1000 l 376 983 z "},"Ó":{"ha":983,"x_min":69,"x_max":914,"o":"m 492 -21 q 192 127 315 -21 q 69 443 69 275 q 198 788 69 645 q 498 930 328 930 q 787 785 659 930 q 914 456 914 640 q 786 122 914 266 q 492 -21 659 -21 m 494 896 q 360 862 420 896 q 280 743 301 827 q 258 447 258 658 q 271 214 258 301 q 333 71 283 127 q 489 14 382 14 q 620 48 554 14 q 705 184 685 83 q 725 496 725 286 q 700 759 725 686 q 621 864 675 831 q 494 896 566 896 m 414 983 l 396 1000 l 532 1164 q 589 1225 570 1209 q 631 1242 608 1242 q 669 1225 652 1242 q 686 1190 686 1208 q 664 1142 686 1162 q 583 1086 642 1122 l 414 983 z "},"Ô":{"ha":983,"x_min":69,"x_max":914,"o":"m 492 -21 q 192 127 315 -21 q 69 443 69 275 q 198 788 69 645 q 498 930 328 930 q 787 785 659 930 q 914 456 914 640 q 786 122 914 266 q 492 -21 659 -21 m 494 896 q 360 862 420 896 q 280 743 301 827 q 258 447 258 658 q 271 214 258 301 q 333 71 283 127 q 489 14 382 14 q 620 48 554 14 q 705 184 685 83 q 725 496 725 286 q 700 759 725 686 q 621 864 675 831 q 494 896 566 896 m 309 996 l 467 1225 l 518 1225 l 676 996 l 639 996 l 493 1124 l 346 996 l 309 996 z "},"Ò":{"ha":983,"x_min":69,"x_max":914,"o":"m 492 -21 q 192 127 315 -21 q 69 443 69 275 q 198 788 69 645 q 498 930 328 930 q 787 785 659 930 q 914 456 914 640 q 786 122 914 266 q 492 -21 659 -21 m 494 896 q 360 862 420 896 q 280 743 301 827 q 258 447 258 658 q 271 214 258 301 q 333 71 283 127 q 489 14 382 14 q 620 48 554 14 q 705 184 685 83 q 725 496 725 286 q 700 759 725 686 q 621 864 675 831 q 494 896 566 896 m 571 983 l 401 1086 q 313 1150 328 1131 q 298 1189 298 1169 q 315 1226 298 1210 q 353 1242 332 1242 q 395 1226 377 1242 q 453 1164 414 1211 l 589 1000 l 571 983 z "},"Ú":{"ha":1055,"x_min":79,"x_max":1007,"o":"m 831 875 l 682 875 l 682 909 l 1007 909 l 1007 875 l 864 875 l 864 325 q 846 149 864 205 q 781 53 828 92 q 667 -3 733 14 q 530 -21 601 -21 q 312 26 381 -21 q 227 141 243 73 q 211 325 211 210 l 211 875 l 79 875 l 79 909 l 514 909 l 514 875 l 371 875 l 371 340 q 381 167 371 230 q 436 62 391 104 q 578 20 481 20 q 719 52 656 20 q 806 138 781 84 q 831 340 831 193 l 831 875 m 505 983 l 488 1000 l 623 1164 q 680 1225 661 1209 q 722 1242 699 1242 q 761 1225 744 1242 q 778 1190 778 1208 q 756 1142 778 1162 q 675 1086 734 1122 l 505 983 z "},"Û":{"ha":1055,"x_min":79,"x_max":1007,"o":"m 831 875 l 682 875 l 682 909 l 1007 909 l 1007 875 l 864 875 l 864 325 q 846 149 864 205 q 781 53 828 92 q 667 -3 733 14 q 530 -21 601 -21 q 312 26 381 -21 q 227 141 243 73 q 211 325 211 210 l 211 875 l 79 875 l 79 909 l 514 909 l 514 875 l 371 875 l 371 340 q 381 167 371 230 q 436 62 391 104 q 578 20 481 20 q 719 52 656 20 q 806 138 781 84 q 831 340 831 193 l 831 875 m 407 996 l 565 1225 l 616 1225 l 774 996 l 737 996 l 591 1124 l 444 996 l 407 996 z "},"Ù":{"ha":1055,"x_min":79,"x_max":1007,"o":"m 831 875 l 682 875 l 682 909 l 1007 909 l 1007 875 l 864 875 l 864 325 q 846 149 864 205 q 781 53 828 92 q 667 -3 733 14 q 530 -21 601 -21 q 312 26 381 -21 q 227 141 243 73 q 211 325 211 210 l 211 875 l 79 875 l 79 909 l 514 909 l 514 875 l 371 875 l 371 340 q 381 167 371 230 q 436 62 391 104 q 578 20 481 20 q 719 52 656 20 q 806 138 781 84 q 831 340 831 193 l 831 875 m 649 983 l 479 1086 q 391 1150 406 1131 q 376 1189 376 1169 q 393 1226 376 1210 q 431 1242 410 1242 q 473 1226 455 1242 q 531 1164 492 1211 l 667 1000 l 649 983 z "},"ı":{"ha":376,"x_min":37,"x_max":353,"o":"m 264 543 l 264 35 l 353 35 l 353 0 l 37 0 l 37 35 l 134 35 l 134 498 l 37 498 l 37 533 l 134 533 q 264 543 203 533 z "},"ˆ":{"ha":463,"x_min":47,"x_max":415,"o":"m 47 647 l 205 876 l 257 876 l 415 647 l 378 647 l 232 775 l 85 647 l 47 647 z "},"˜":{"ha":463,"x_min":18,"x_max":444,"o":"m 418 838 l 444 838 q 404 725 443 764 q 315 686 365 686 q 201 716 271 686 q 109 746 132 746 q 45 686 57 746 l 18 686 q 57 800 18 763 q 149 838 95 838 q 261 808 195 838 q 355 779 328 779 q 418 838 401 779 z "},"ˉ":{"ha":463,"x_min":62,"x_max":400,"o":"m 62 822 l 400 822 l 400 715 l 62 715 l 62 822 z "},"˘":{"ha":463,"x_min":52,"x_max":411,"o":"m 52 865 l 72 865 q 229 766 104 766 q 390 865 353 766 l 411 865 q 348 713 399 760 q 232 665 296 665 q 114 714 164 665 q 52 865 63 762 z "},"˙":{"ha":463,"x_min":160,"x_max":302,"o":"m 160 764 q 181 814 160 794 q 232 835 202 835 q 282 814 261 835 q 302 764 302 793 q 282 713 302 734 q 232 692 261 692 q 181 713 203 692 q 160 764 160 734 z "},"˚":{"ha":463,"x_min":117,"x_max":346,"o":"m 117 765 q 151 847 117 813 q 232 880 184 880 q 312 847 279 880 q 346 765 346 813 q 312 685 346 718 q 232 652 279 652 q 150 685 184 652 q 117 765 117 718 m 315 766 q 291 825 315 801 q 231 850 266 850 q 172 825 197 850 q 147 766 147 801 q 172 707 147 732 q 231 682 197 682 q 291 707 266 682 q 315 766 315 732 z "},"¸":{"ha":463,"x_min":167,"x_max":340,"o":"m 167 -222 l 167 -196 q 221 -201 208 -201 q 260 -189 244 -201 q 277 -158 277 -177 q 218 -119 277 -119 l 218 11 l 248 11 l 248 -54 q 315 -73 290 -51 q 340 -134 340 -96 q 308 -206 340 -180 q 232 -232 275 -232 q 167 -222 204 -232 z "},"˝":{"ha":463,"x_min":47,"x_max":472,"o":"m 261 633 l 239 648 l 330 806 q 375 874 360 857 q 411 890 390 890 q 453 874 433 890 q 472 836 472 859 q 459 797 472 813 q 396 742 446 781 l 261 633 m 69 633 l 47 648 l 139 806 q 183 874 169 857 q 220 890 198 890 q 261 874 242 890 q 281 836 281 859 q 267 797 281 813 q 204 742 254 781 l 69 633 z "},"˛":{"ha":463,"x_min":85,"x_max":383,"o":"m 151 12 l 183 12 q 154 -66 154 -32 q 192 -148 154 -115 q 277 -182 231 -182 q 370 -149 317 -182 l 383 -167 q 210 -241 280 -241 q 125 -207 165 -241 q 85 -118 85 -173 q 151 12 85 -59 z "},"ˇ":{"ha":463,"x_min":47,"x_max":415,"o":"m 415 879 l 257 650 l 205 650 l 47 879 l 85 879 l 231 751 l 378 879 l 415 879 z "},"Ł":{"ha":897,"x_min":68,"x_max":857,"o":"m 372 481 l 372 35 l 576 35 q 694 54 650 35 q 768 128 739 73 q 825 296 798 182 l 857 296 l 832 0 l 68 0 l 68 35 l 211 35 l 211 350 l 68 235 l 68 296 l 211 411 l 211 875 l 68 875 l 68 909 l 524 909 l 524 875 l 372 875 l 372 542 l 546 684 l 546 623 l 372 481 z "},"ł":{"ha":376,"x_min":28,"x_max":353,"o":"m 257 471 l 257 35 l 353 35 l 353 0 l 28 0 l 28 35 l 125 35 l 125 363 l 28 282 l 28 345 l 125 425 l 125 875 l 28 875 l 28 909 l 121 909 q 257 920 214 909 l 257 533 l 353 614 l 353 551 l 257 471 z "},"Š":{"ha":753,"x_min":82,"x_max":682,"o":"m 625 920 l 629 684 l 597 684 q 358 896 530 896 q 211 843 263 896 q 158 734 158 791 q 202 646 158 682 q 361 589 245 609 q 538 540 477 569 q 641 444 599 511 q 682 290 682 377 q 595 68 682 157 q 379 -21 508 -21 q 170 57 274 -21 l 106 0 l 82 0 l 82 254 l 111 254 q 223 74 151 134 q 380 14 295 14 q 536 70 465 14 q 607 211 607 125 q 558 332 607 283 q 398 400 509 381 q 229 443 288 418 q 128 529 170 468 q 86 665 86 591 q 159 849 86 768 q 358 930 233 930 q 554 864 463 930 q 597 920 579 888 l 625 920 m 561 1228 l 403 999 l 351 999 l 193 1228 l 231 1228 l 376 1101 l 524 1228 l 561 1228 z "},"š":{"ha":521,"x_min":64,"x_max":467,"o":"m 424 539 l 424 387 l 396 387 q 244 519 365 519 q 157 492 192 519 q 122 429 122 465 q 147 382 122 399 q 264 353 172 365 q 467 168 467 328 q 414 36 467 89 q 283 -17 361 -17 q 135 46 207 -17 l 87 5 l 64 5 l 64 205 l 87 205 q 283 14 146 14 q 378 47 336 14 q 421 125 421 80 q 396 181 421 162 q 258 216 370 200 q 68 386 68 244 q 119 503 68 456 q 244 550 170 550 q 375 498 322 550 q 403 539 389 513 l 424 539 m 444 879 l 286 650 l 235 650 l 77 879 l 114 879 l 260 751 l 407 879 l 444 879 z "},"Ž":{"ha":825,"x_min":47,"x_max":760,"o":"m 745 0 l 47 0 l 47 35 l 570 875 l 355 875 q 192 827 238 875 q 125 665 146 779 l 93 665 l 107 909 l 760 909 l 760 885 l 229 35 l 452 35 q 595 53 547 35 q 681 146 644 72 q 726 298 718 220 l 760 298 l 745 0 m 597 1228 l 439 999 l 388 999 l 230 1228 l 267 1228 l 413 1101 l 560 1228 l 597 1228 z "},"ž":{"ha":593,"x_min":58,"x_max":534,"o":"m 79 321 l 79 533 l 534 533 l 534 504 l 208 31 l 301 31 q 434 69 385 31 q 509 228 482 107 l 534 228 l 534 0 l 58 0 l 58 35 l 383 503 l 290 503 q 213 493 245 503 q 151 445 181 484 q 107 321 121 405 l 79 321 m 481 879 l 323 650 l 271 650 l 113 879 l 151 879 l 296 751 l 444 879 l 481 879 z "},"¦":{"ha":732,"x_min":329,"x_max":404,"o":"m 329 930 l 404 930 l 404 376 l 329 376 l 329 930 m 329 -355 l 329 199 l 404 199 l 404 -355 l 329 -355 z "},"­":{"ha":449,"x_min":79,"x_max":370,"o":"m 79 345 l 370 345 l 370 232 l 79 232 l 79 345 z "},"¯":{"ha":694,"x_min":-8,"x_max":703,"o":"m 703 1014 l -8 1014 l -8 1083 l 703 1083 l 703 1014 z "},"Ð":{"ha":1055,"x_min":62,"x_max":972,"o":"m 204 437 l 62 437 l 62 472 l 204 472 l 204 875 l 62 875 l 62 909 l 492 909 q 735 869 634 909 q 905 711 837 829 q 972 456 972 593 q 898 195 972 310 q 726 40 823 81 q 489 0 629 0 l 62 0 l 62 35 l 204 35 l 204 437 m 595 437 l 366 437 l 366 35 l 484 35 q 635 52 576 35 q 732 125 694 68 q 784 270 770 182 q 798 498 798 357 q 754 751 798 668 q 649 855 711 835 q 486 875 587 875 l 366 875 l 366 472 l 595 472 l 595 437 z "},"ð":{"ha":694,"x_min":64,"x_max":624,"o":"m 227 903 l 240 928 q 407 825 335 889 l 543 897 l 559 865 l 436 799 q 569 589 514 712 q 624 294 624 465 q 539 66 624 150 q 342 -17 454 -17 q 146 65 229 -17 q 64 268 64 148 q 145 468 64 387 q 342 550 227 550 q 449 530 391 550 q 366 762 417 671 l 199 672 l 182 704 l 346 791 q 227 903 292 863 m 345 521 q 263 495 294 521 q 223 430 231 470 q 215 268 215 389 q 225 101 215 143 q 267 36 235 58 q 345 14 298 14 q 426 39 395 14 q 464 104 456 64 q 472 268 472 145 q 463 433 472 391 q 422 498 453 475 q 345 521 391 521 z "},"Ý":{"ha":1055,"x_min":41,"x_max":1032,"o":"m 41 909 l 496 909 l 496 875 l 346 875 l 612 473 l 875 875 l 710 875 l 710 909 l 1032 909 l 1032 875 l 914 875 l 629 440 l 629 35 l 781 35 l 781 0 l 314 0 l 314 35 l 468 35 l 468 416 l 163 875 l 41 875 l 41 909 m 450 983 l 432 1000 l 568 1164 q 625 1225 606 1209 q 667 1242 644 1242 q 705 1225 688 1242 q 722 1190 722 1208 q 700 1142 722 1162 q 619 1086 678 1122 l 450 983 z "},"ý":{"ha":753,"x_min":29,"x_max":730,"o":"m 253 498 l 443 127 l 608 498 l 490 498 l 490 533 l 730 533 l 730 498 l 640 498 l 367 -121 q 267 -307 308 -254 q 167 -359 226 -359 q 110 -336 130 -359 q 90 -283 90 -313 q 107 -239 90 -256 q 149 -222 125 -222 q 200 -253 182 -222 q 231 -283 218 -283 q 270 -250 249 -283 q 334 -121 291 -217 l 378 -21 l 110 498 l 29 498 l 29 533 l 355 533 l 355 498 l 253 498 m 298 635 l 281 652 l 416 815 q 473 877 454 861 q 515 893 492 893 q 554 877 537 893 q 571 842 571 860 q 549 793 571 813 q 468 737 527 773 l 298 635 z "},"Þ":{"ha":911,"x_min":68,"x_max":856,"o":"m 68 909 l 521 909 l 521 875 l 374 875 l 374 718 l 536 718 q 775 647 694 718 q 856 473 856 576 q 774 297 856 367 q 505 227 692 227 l 374 227 l 374 35 l 521 35 l 521 0 l 68 0 l 68 35 l 212 35 l 212 875 l 68 875 l 68 909 m 374 684 l 374 260 l 461 260 q 575 271 530 260 q 653 332 621 283 q 686 486 686 382 q 657 620 686 577 q 589 673 629 663 q 492 684 550 684 l 374 684 z "},"þ":{"ha":755,"x_min":37,"x_max":688,"o":"m 269 89 l 269 -317 l 379 -317 l 379 -355 l 46 -355 l 46 -317 l 138 -317 l 138 876 l 37 876 l 37 911 l 114 911 q 269 920 198 911 l 269 435 l 272 435 q 446 550 328 550 q 615 470 542 550 q 688 281 688 391 q 608 78 688 163 q 431 -8 528 -8 q 272 89 328 -8 l 269 89 m 536 268 q 529 435 536 393 q 497 499 522 478 q 440 519 471 519 q 334 475 374 519 q 281 389 294 431 q 269 265 269 347 q 281 134 269 179 q 336 55 292 88 q 433 22 380 22 q 512 68 488 22 q 536 268 536 115 z "},"−":{"ha":926,"x_min":97,"x_max":829,"o":"m 97 484 l 829 484 l 829 411 l 97 411 l 97 484 z "},"×":{"ha":926,"x_min":129,"x_max":799,"o":"m 129 729 l 180 781 l 464 497 l 747 781 l 799 729 l 517 447 l 799 165 l 747 114 l 464 397 l 180 114 l 129 165 l 411 447 l 129 729 z "},"¹":{"ha":449,"x_min":87,"x_max":375,"o":"m 272 893 l 272 464 l 375 464 l 375 447 l 87 447 l 87 464 l 191 464 l 191 863 l 87 863 l 87 879 q 272 893 196 879 z "},"²":{"ha":449,"x_min":33,"x_max":379,"o":"m 379 572 l 364 447 l 33 447 l 33 488 q 183 602 82 530 q 283 760 283 673 q 256 839 283 809 q 178 868 229 868 q 104 846 132 868 q 75 799 75 824 q 82 785 75 785 q 96 789 87 785 q 118 794 104 794 q 148 784 136 794 q 160 760 160 773 q 147 736 160 747 q 114 725 134 725 q 69 743 86 725 q 52 789 52 762 q 95 862 52 830 q 208 893 139 893 q 327 864 277 893 q 376 785 376 836 q 315 680 376 734 q 83 505 253 625 l 83 503 l 283 503 q 342 509 333 503 q 355 572 351 516 l 379 572 z "},"³":{"ha":449,"x_min":50,"x_max":393,"o":"m 222 682 q 393 567 393 670 q 335 476 393 514 q 196 437 277 437 q 91 463 132 437 q 50 519 50 489 q 63 550 50 538 q 96 562 77 562 q 127 552 115 562 q 140 526 140 541 q 121 497 140 505 q 102 486 102 490 q 129 467 102 479 q 191 456 157 456 q 296 555 296 456 q 170 672 296 677 l 129 671 q 110 681 110 671 q 127 692 110 692 l 170 689 q 269 787 269 689 q 251 859 269 842 q 196 876 232 876 q 140 866 161 876 q 118 850 118 856 q 137 837 118 844 q 155 812 155 829 q 142 790 155 800 q 113 781 129 781 q 81 792 93 781 q 69 818 69 804 q 107 870 69 846 q 205 893 144 893 q 320 864 275 893 q 366 793 366 834 q 222 685 366 713 l 222 682 z "},"½":{"ha":1287,"x_min":201,"x_max":1107,"o":"m 386 893 l 386 464 l 489 464 l 489 447 l 201 447 l 201 464 l 304 464 l 304 863 l 201 863 l 201 879 q 386 893 310 879 m 1011 893 l 343 -41 l 282 -41 l 949 893 l 1011 893 m 1107 94 l 1092 -32 l 761 -32 l 761 9 q 910 123 810 51 q 1011 281 1011 195 q 984 360 1011 330 q 905 389 956 389 q 831 367 860 389 q 803 320 803 345 q 810 306 803 306 q 824 311 815 306 q 846 315 832 315 q 876 305 863 315 q 888 281 888 294 q 874 257 888 268 q 842 246 861 246 q 797 264 814 246 q 779 310 779 283 q 823 383 779 351 q 936 414 867 414 q 1054 386 1004 414 q 1104 306 1104 357 q 1042 201 1104 255 q 811 26 981 146 l 811 24 l 1011 24 q 1070 31 1061 24 q 1083 94 1079 37 l 1107 94 z "},"¼":{"ha":1287,"x_min":201,"x_max":1092,"o":"m 386 893 l 386 464 l 489 464 l 489 447 l 201 447 l 201 464 l 304 464 l 304 863 l 201 863 l 201 879 q 386 893 310 879 m 1011 893 l 343 -41 l 282 -41 l 949 893 l 1011 893 m 996 415 l 996 107 l 1069 107 l 1069 155 l 1092 155 l 1092 35 l 1069 35 l 1069 90 l 996 90 l 996 -16 l 1061 -16 l 1061 -32 l 836 -32 l 836 -16 l 909 -16 l 909 90 l 703 90 q 713 122 703 105 q 809 251 723 140 q 954 415 896 361 l 996 415 m 909 107 l 909 340 q 728 107 831 252 l 909 107 z "},"¾":{"ha":1287,"x_min":170,"x_max":1092,"o":"m 342 682 q 513 567 513 670 q 455 476 513 514 q 315 437 397 437 q 210 463 251 437 q 170 519 170 489 q 183 550 170 538 q 215 562 196 562 q 247 552 234 562 q 260 526 260 541 q 240 497 260 505 q 221 486 221 490 q 249 467 221 479 q 310 456 276 456 q 415 555 415 456 q 289 672 415 677 l 248 671 q 229 681 229 671 q 247 692 229 692 l 290 689 q 389 787 389 689 q 370 859 389 842 q 315 876 351 876 q 259 866 281 876 q 237 850 237 856 q 256 837 237 844 q 275 812 275 829 q 261 790 275 800 q 232 781 248 781 q 200 792 212 781 q 189 818 189 804 q 226 870 189 846 q 325 893 264 893 q 439 864 394 893 q 485 793 485 834 q 342 685 485 713 l 342 682 m 1011 893 l 343 -41 l 282 -41 l 949 893 l 1011 893 m 996 415 l 996 107 l 1069 107 l 1069 155 l 1092 155 l 1092 35 l 1069 35 l 1069 90 l 996 90 l 996 -16 l 1061 -16 l 1061 -32 l 836 -32 l 836 -16 l 909 -16 l 909 90 l 703 90 q 713 122 703 105 q 809 251 723 140 q 954 415 896 361 l 996 415 m 909 107 l 909 340 q 728 107 831 252 l 909 107 z "},"¤":{"ha":926,"x_min":140,"x_max":787,"o":"m 140 721 l 191 771 l 277 685 q 463 750 355 750 q 652 685 569 750 l 737 771 l 787 721 l 701 635 q 766 443 766 547 q 701 260 766 338 l 787 174 l 737 123 l 652 210 q 461 143 569 143 q 277 210 353 143 l 191 123 l 140 174 l 227 260 q 161 452 161 357 q 227 635 161 547 l 140 721 m 694 446 q 627 610 694 542 q 464 677 559 677 q 301 610 369 677 q 233 446 233 542 q 301 283 233 351 q 464 215 369 215 q 627 283 559 215 q 694 446 694 351 z "}}}
